<svg height="60" shape-rendering="crispEdges" width="48" xmlns="http://www.w3.org/2000/svg"><path d="m3 6v1 1h1 1 1v1 1h1 1v1 1 1 1 1 1 1 1 1 1 1 1 1 1 1h1 1 1 1 1 1v-1-1-1-1-1-1-1-1-1-1-1-1-1-1h-1-1v1 1 1 1 1 1 1 1 1 1 1 1h-1-1v-1-1-1-1-1-1-1-1-1-1-1-1-1-1-1h-1v-2h-1-1-1-1-1z"/><path d="m20 6v1 1 1 1 1 1 1h1 1 1 1 1 1 1v-1-1-1-1-1-1-1h-1-1-1-1-1-1zm2 2h1 1 1v1 1 1h-1-1-1v-1-1z"/><path d="m38 6v1 1h-1v1 1 1 1 1 1 1 1 1 1 1 1 1 1 1h-1-1v-1-1-1-1-1-1-1-1-1-1-1-1h-1-1v1 1 1 1 1 1 1 1 1 1 1 1 1 1h1 1 1 1 1 1v-1-1-1-1-1-1-1-1-1-1-1-1-1-1-1h1 1v-1-1h1 1 1v-1-1h-1-1-1-1-1z"/><path d="m16 15v1 1 1 1 1 1 1 1 1 1 1 1 1 1h1 1v1 1 1 1 1 1 1 1 1 1 1 1 1 1 1 1 1h1 1 1 1 1 1 1 1 1 1 1v-1-1-1-1-1-1-1-1-1-1-1-1-1-1-1-1-1h1 1v-1-1-1-1-1-1-1-1-1-1-1-1-1-1h-1-1v1 1 1 1 1 1 1 1 1 1 1 1h-1-1v1 1 1 1 1 1 1 1 1 1 1 1 1 1 1 1 1h-1-1-1-1-1-1-1v-1-1-1-1-1-1-1-1-1-1-1-1-1-1-1-1-1h-1-1v-1-1-1-1-1-1-1-1-1-1-1-1h-1z"/><path d="m21 16v1 1 1 1 1 1 1 1 1 1 1 1 1 1 1 1 1 1 1 1 1 1 1 1 1 1 1h1 1 1 1 1v-1-1-1-1-1-1-1-1-1-1-1-1-1-1-1-1-1-1-1-1-1-1-1-1-1-1-1h-1-1-1-1z"/><path d="m18 48v1h-1-1v1 1h-1-1v1 1h1 1l.01716-2h.98899.755716.238134v-1h1 1v1h1v1 1 1 1h-1v1 1h1v1h1 1 1 1 1v-1h1v-1-1h-1v-1-1-1-1h1v-1h1 1v1h1 1v2h1 1v-1-1h-1-1v-1-1h-1-1v-1h-1-1-1-1-1-1-1-1-1-1zm15 5v1.984375h1v.015625h1v-1-1h-.958984zm2 2v1 1h1 1 1 1v-1-1h-1-1-1zm-8 0h1 1v-1-1h-1-1v1zm-7 0v-1-1h-1-1v1 1h1zm-6-2h-1-1v1 1h1 1v-1zm-2 2h-1-1-1-1v1 1h1 1 1 1v-1zm10-5h1 1 1v1h-1-1-1z"/></svg>