<svg xmlns="http://www.w3.org/2000/svg" xmlns:xlink="http://www.w3.org/1999/xlink" version="1.2" width="210.00mm" height="297.00mm" viewBox="0.0000 -0.0000 119.5016 169.0094">
<style type="text/css">
<![CDATA[
tspan { white-space: pre; }
]]>
</style>
<g transform="translate(38.3741, 11.7349)">
<rect x="0.0000" y="-2.0000" width="0.1900" height="4.0000" ry="0.0000" fill="currentColor"/>
</g>
<g transform="translate(14.2264, 13.7349)">
<line stroke-linejoin="round" stroke-linecap="round" stroke-width="0.1000" stroke="currentColor" x1="0.0500" y1="0" x2="99.5346" y2="0"/>
</g>
<g transform="translate(14.2264, 12.7349)">
<line stroke-linejoin="round" stroke-linecap="round" stroke-width="0.1000" stroke="currentColor" x1="0.0500" y1="0" x2="99.5346" y2="0"/>
</g>
<g transform="translate(14.2264, 11.7349)">
<line stroke-linejoin="round" stroke-linecap="round" stroke-width="0.1000" stroke="currentColor" x1="0.0500" y1="0" x2="99.5346" y2="0"/>
</g>
<g transform="translate(14.2264, 10.7349)">
<line stroke-linejoin="round" stroke-linecap="round" stroke-width="0.1000" stroke="currentColor" x1="0.0500" y1="0" x2="99.5346" y2="0"/>
</g>
<g transform="translate(14.2264, 9.7349)">
<line stroke-linejoin="round" stroke-linecap="round" stroke-width="0.1000" stroke="currentColor" x1="0.0500" y1="0" x2="99.5346" y2="0"/>
</g>
<g transform="translate(113.6210, 11.7349)">
<rect x="0.0000" y="-2.0000" width="0.1900" height="4.0000" ry="0.0000" fill="currentColor"/>
</g>
<g transform="translate(96.3228, 11.7349)">
<rect x="0.0000" y="-2.0000" width="0.1900" height="4.0000" ry="0.0000" fill="currentColor"/>
</g>
<g transform="translate(87.0449, 11.7349)">
<rect x="0.0000" y="-2.0000" width="0.1900" height="4.0000" ry="0.0000" fill="currentColor"/>
</g>
<g transform="translate(75.1134, 11.7349)">
<rect x="0.0000" y="-2.0000" width="0.1900" height="4.0000" ry="0.0000" fill="currentColor"/>
</g>
<g transform="translate(55.1129, 11.7349)">
<rect x="0.0000" y="-2.0000" width="0.1900" height="4.0000" ry="0.0000" fill="currentColor"/>
</g>
<a style="color:inherit;" xlink:href="textedit:///data/data/com.termux/files/home/repo/Proj/rsuu.github.io/content/blog/2024-07-01_midi/drum.ly:35:8:9">
<g transform="translate(22.1611, 10.2349)">
<path transform="scale(0.0040, -0.0040)" d="M163 36l119 97c3 2 6 3 9 3s7 -1 10 -3l20 -16c3 -3 5 -8 5 -12s-2 -9 -5 -12l-115 -93l115 -93c3 -3 5 -8 5 -12s-2 -9 -5 -12l-20 -16c-3 -2 -7 -3 -10 -3s-6 1 -9 3l-119 97l-119 -97c-3 -2 -6 -3 -9 -3s-7 1 -10 3l-20 16c-3 3 -5 8 -5 12s2 9 5 12l115 93l-115 93
c-3 3 -5 8 -5 12s2 9 5 12l20 16c3 2 7 3 10 3s6 -1 9 -3z" fill="currentColor"/>
</g>
</a>
<a style="color:inherit;" xlink:href="textedit:///data/data/com.termux/files/home/repo/Proj/rsuu.github.io/content/blog/2024-07-01_midi/drum.ly:57:8:9">
<g transform="translate(22.1611, 13.2349)">
<path transform="scale(0.0040, -0.0040)" d="M218 136c55 0 108 -28 108 -89c0 -71 -55 -121 -102 -149c-35 -21 -75 -34 -116 -34c-55 0 -108 28 -108 89c0 71 55 121 102 149c35 21 75 34 116 34z" fill="currentColor"/>
</g>
</a>
<g transform="translate(14.3564, 11.7349)">
<path transform="scale(0.0040, -0.0040)" d="M490 -250h-92c-6 0 -10 4 -10 10v480c0 6 4 10 10 10h92c6 0 10 -4 10 -10v-480c0 -6 -4 -10 -10 -10zM270 -250h-93c-6 0 -10 4 -10 10v480c0 6 4 10 10 10h93c6 0 10 -4 10 -10v-480c0 -6 -4 -10 -10 -10z" fill="currentColor"/>
</g>
<a style="color:inherit;" xlink:href="textedit:///data/data/com.termux/files/home/repo/Proj/rsuu.github.io/content/blog/2024-07-01_midi/drum.ly:30:4:5">
<g transform="translate(18.5564, 11.7349)">
<path transform="scale(0.0040, -0.0040)" d="M196 117h117c0 -48 27 -94 72 -94c8 0 12 -5 12 -11s-4 -12 -12 -12c-44 0 -87 13 -131 13s-87 -13 -131 -13c-8 0 -12 6 -12 12s4 11 12 11c45 0 73 46 73 94zM204 307c22 14 44 29 60 50c11 15 19 33 27 50c2 4 5 6 9 6c6 0 13 -5 13 -14v-245h72c10 0 15 -7 15 -14
s-5 -15 -15 -15h-72v-8h-117v8h-167c-23 0 -31 14 -31 23c0 3 1 5 2 6c80 93 138 207 138 330c0 10 7 19 16 16c23 -7 47 -13 71 -13s48 6 71 13c14 4 23 -9 17 -16l-284 -330h167v131c0 8 1 17 8 22z" fill="currentColor"/>
</g>
<g transform="translate(18.5564, 13.7509)">
<path transform="scale(0.0040, -0.0040)" d="M196 117h117c0 -48 27 -94 72 -94c8 0 12 -5 12 -11s-4 -12 -12 -12c-44 0 -87 13 -131 13s-87 -13 -131 -13c-8 0 -12 6 -12 12s4 11 12 11c45 0 73 46 73 94zM204 307c22 14 44 29 60 50c11 15 19 33 27 50c2 4 5 6 9 6c6 0 13 -5 13 -14v-245h72c10 0 15 -7 15 -14
s-5 -15 -15 -15h-72v-8h-117v8h-167c-23 0 -31 14 -31 23c0 3 1 5 2 6c80 93 138 207 138 330c0 10 7 19 16 16c23 -7 47 -13 71 -13s48 6 71 13c14 4 23 -9 17 -16l-284 -330h167v131c0 8 1 17 8 22z" fill="currentColor"/>
</g>
</a>
<a style="color:inherit;" xlink:href="textedit:///data/data/com.termux/files/home/repo/Proj/rsuu.github.io/content/blog/2024-07-01_midi/drum.ly:28:4:5">
<g transform="translate(18.5564, 6.7054)">
<rect x="1.0449" y="-2.6727" width="0.1158" height="2.5129" ry="0.0193" fill="currentColor"/>
</g>
<g transform="translate(18.5564, 6.7054)">
<path transform="scale(0.0036, -0.0036)" d="M215 137c57 0 111 -29 111 -92c0 -71 -54 -120 -101 -148c-35 -21 -74 -34 -114 -34c-57 0 -111 29 -111 92c0 71 54 120 101 148c35 21 74 34 114 34z" fill="currentColor"/>
</g>
<g transform="translate(19.7170, 7.1941)">
<text font-family="serif" font-size="2.2000" text-anchor="start" fill="currentColor">
<tspan> = 100</tspan>
</text>
</g>
</a>
<g transform="translate(23.4003, 11.7349)">
<rect x="-0.0650" y="-3.8100" width="0.1300" height="1.8896" ry="0.0400" fill="currentColor"/>
</g>
<g transform="translate(22.2261, 11.7349)">
<rect x="-0.0650" y="1.6861" width="0.1300" height="2.6472" ry="0.0400" fill="currentColor"/>
</g>
<g transform="translate(103.9287, 8.2349)">
<polygon stroke-linejoin="round" stroke-linecap="round" stroke-width="0.0800" fill="currentColor" stroke="currentColor" points="3.5587 -0.2000 3.5587 0.2000 0.0400 0.2000 0.0400 -0.2000"/>
</g>
<g transform="translate(103.9287, 9.0449)">
<polygon stroke-linejoin="round" stroke-linecap="round" stroke-width="0.0800" fill="currentColor" stroke="currentColor" points="1.8244 -0.2000 1.8244 0.2000 0.0400 0.2000 0.0400 -0.2000"/>
</g>
<a style="color:inherit;" xlink:href="textedit:///data/data/com.termux/files/home/repo/Proj/rsuu.github.io/content/blog/2024-07-01_midi/drum.ly:35:12:13">
<g transform="translate(24.1256, 10.2349)">
<path transform="scale(0.0040, -0.0040)" d="M163 36l119 97c3 2 6 3 9 3s7 -1 10 -3l20 -16c3 -3 5 -8 5 -12s-2 -9 -5 -12l-115 -93l115 -93c3 -3 5 -8 5 -12s-2 -9 -5 -12l-20 -16c-3 -2 -7 -3 -10 -3s-6 1 -9 3l-119 97l-119 -97c-3 -2 -6 -3 -9 -3s-7 1 -10 3l-20 16c-3 3 -5 8 -5 12s2 9 5 12l115 93l-115 93
c-3 3 -5 8 -5 12s2 9 5 12l20 16c3 2 7 3 10 3s6 -1 9 -3z" fill="currentColor"/>
</g>
</a>
<g transform="translate(25.3649, 11.7349)">
<rect x="-0.0650" y="-3.8100" width="0.1300" height="1.8896" ry="0.0400" fill="currentColor"/>
</g>
<g transform="translate(68.4238, 7.9249)">
<polygon stroke-linejoin="round" stroke-linecap="round" stroke-width="0.0800" fill="currentColor" stroke="currentColor" points="5.9836 -0.2000 5.9836 0.2000 0.0400 0.2000 0.0400 -0.2000"/>
</g>
<a style="color:inherit;" xlink:href="textedit:///data/data/com.termux/files/home/repo/Proj/rsuu.github.io/content/blog/2024-07-01_midi/drum.ly:35:16:17">
<g transform="translate(26.0902, 10.2349)">
<path transform="scale(0.0040, -0.0040)" d="M163 36l119 97c3 2 6 3 9 3s7 -1 10 -3l20 -16c3 -3 5 -8 5 -12s-2 -9 -5 -12l-115 -93l115 -93c3 -3 5 -8 5 -12s-2 -9 -5 -12l-20 -16c-3 -2 -7 -3 -10 -3s-6 1 -9 3l-119 97l-119 -97c-3 -2 -6 -3 -9 -3s-7 1 -10 3l-20 16c-3 3 -5 8 -5 12s2 9 5 12l115 93l-115 93
c-3 3 -5 8 -5 12s2 9 5 12l20 16c3 2 7 3 10 3s6 -1 9 -3z" fill="currentColor"/>
</g>
</a>
<a style="color:inherit;" xlink:href="textedit:///data/data/com.termux/files/home/repo/Proj/rsuu.github.io/content/blog/2024-07-01_midi/drum.ly:35:20:21">
<g transform="translate(26.0902, 11.2349)">
<path transform="scale(0.0040, -0.0040)" d="M218 136c55 0 108 -28 108 -89c0 -71 -55 -121 -102 -149c-35 -21 -75 -34 -116 -34c-55 0 -108 28 -108 89c0 71 55 121 102 149c35 21 75 34 116 34z" fill="currentColor"/>
</g>
</a>
<a style="color:inherit;" xlink:href="textedit:///data/data/com.termux/files/home/repo/Proj/rsuu.github.io/content/blog/2024-07-01_midi/drum.ly:57:12:13">
<g transform="translate(26.0902, 14.7349)">
<path transform="scale(0.0040, -0.0040)" d="M-23 -116c0 28 11 42 40 42c33 0 78 -13 119 -31l-132 158c-7 9 -10 17 -10 25c0 34 50 66 87 99c25 22 37 52 37 83c0 24 -8 49 -25 69l-35 42c-3 3 -4 7 -4 10c0 9 9 15 17 15c4 0 8 -1 11 -5l151 -180c7 -9 10 -17 10 -25c0 -34 -50 -66 -87 -99
c-25 -22 -37 -52 -37 -83c0 -24 7 -49 24 -69l84 -99c3 -3 4 -7 4 -10c0 -9 -8 -16 -16 -16c-4 0 -9 2 -12 6c-18 21 -63 38 -97 38c-41 0 -53 -26 -53 -67c0 -35 11 -74 28 -94c7 -8 -5 -19 -12 -11c-45 54 -92 148 -92 202z" fill="currentColor"/>
</g>
</a>
<g transform="translate(27.3294, 11.7349)">
<rect x="-0.0650" y="-3.8100" width="0.1300" height="3.1239" ry="0.0400" fill="currentColor"/>
</g>
<g transform="translate(62.7406, 8.2349)">
<polygon stroke-linejoin="round" stroke-linecap="round" stroke-width="0.0800" fill="currentColor" stroke="currentColor" points="3.5587 -0.2000 3.5587 0.2000 0.0400 0.2000 0.0400 -0.2000"/>
</g>
<g transform="translate(62.7406, 9.0449)">
<polygon stroke-linejoin="round" stroke-linecap="round" stroke-width="0.0800" fill="currentColor" stroke="currentColor" points="1.8244 -0.2000 1.8244 0.2000 0.0400 0.2000 0.0400 -0.2000"/>
</g>
<a style="color:inherit;" xlink:href="textedit:///data/data/com.termux/files/home/repo/Proj/rsuu.github.io/content/blog/2024-07-01_midi/drum.ly:35:26:27">
<g transform="translate(28.0547, 10.2349)">
<path transform="scale(0.0040, -0.0040)" d="M163 36l119 97c3 2 6 3 9 3s7 -1 10 -3l20 -16c3 -3 5 -8 5 -12s-2 -9 -5 -12l-115 -93l115 -93c3 -3 5 -8 5 -12s-2 -9 -5 -12l-20 -16c-3 -2 -7 -3 -10 -3s-6 1 -9 3l-119 97l-119 -97c-3 -2 -6 -3 -9 -3s-7 1 -10 3l-20 16c-3 3 -5 8 -5 12s2 9 5 12l115 93l-115 93
c-3 3 -5 8 -5 12s2 9 5 12l20 16c3 2 7 3 10 3s6 -1 9 -3z" fill="currentColor"/>
</g>
</a>
<g transform="translate(29.2939, 11.7349)">
<rect x="-0.0650" y="-3.8100" width="0.1300" height="1.8896" ry="0.0400" fill="currentColor"/>
</g>
<g transform="translate(57.3073, 8.2349)">
<polygon stroke-linejoin="round" stroke-linecap="round" stroke-width="0.0800" fill="currentColor" stroke="currentColor" points="3.7889 -0.2000 3.7889 0.2000 0.0400 0.2000 0.0400 -0.2000"/>
</g>
<g transform="translate(59.2718, 9.0449)">
<polygon stroke-linejoin="round" stroke-linecap="round" stroke-width="0.0800" fill="currentColor" stroke="currentColor" points="1.8244 -0.2000 1.8244 0.2000 0.0400 0.2000 0.0400 -0.2000"/>
</g>
<a style="color:inherit;" xlink:href="textedit:///data/data/com.termux/files/home/repo/Proj/rsuu.github.io/content/blog/2024-07-01_midi/drum.ly:35:30:31">
<g transform="translate(30.0192, 10.2349)">
<path transform="scale(0.0040, -0.0040)" d="M163 36l119 97c3 2 6 3 9 3s7 -1 10 -3l20 -16c3 -3 5 -8 5 -12s-2 -9 -5 -12l-115 -93l115 -93c3 -3 5 -8 5 -12s-2 -9 -5 -12l-20 -16c-3 -2 -7 -3 -10 -3s-6 1 -9 3l-119 97l-119 -97c-3 -2 -6 -3 -9 -3s-7 1 -10 3l-20 16c-3 3 -5 8 -5 12s2 9 5 12l115 93l-115 93
c-3 3 -5 8 -5 12s2 9 5 12l20 16c3 2 7 3 10 3s6 -1 9 -3z" fill="currentColor"/>
</g>
</a>
<a style="color:inherit;" xlink:href="textedit:///data/data/com.termux/files/home/repo/Proj/rsuu.github.io/content/blog/2024-07-01_midi/drum.ly:57:15:16">
<g transform="translate(30.0192, 13.2349)">
<path transform="scale(0.0040, -0.0040)" d="M218 136c55 0 108 -28 108 -89c0 -71 -55 -121 -102 -149c-35 -21 -75 -34 -116 -34c-55 0 -108 28 -108 89c0 71 55 121 102 149c35 21 75 34 116 34z" fill="currentColor"/>
</g>
</a>
<g transform="translate(31.2584, 11.7349)">
<rect x="-0.0650" y="-4.1962" width="0.1300" height="2.2758" ry="0.0400" fill="currentColor"/>
</g>
<g transform="translate(30.0842, 11.7349)">
<rect x="-0.0650" y="1.6861" width="0.1300" height="2.6472" ry="0.0400" fill="currentColor"/>
</g>
<g transform="translate(48.4233, 7.9249)">
<polygon stroke-linejoin="round" stroke-linecap="round" stroke-width="0.0800" fill="currentColor" stroke="currentColor" points="5.9836 -0.2000 5.9836 0.2000 0.0400 0.2000 0.0400 -0.2000"/>
</g>
<a style="color:inherit;" xlink:href="textedit:///data/data/com.termux/files/home/repo/Proj/rsuu.github.io/content/blog/2024-07-01_midi/drum.ly:35:32:33">
<g transform="translate(31.9837, 10.2349)">
<path transform="scale(0.0040, -0.0040)" d="M163 36l119 97c3 2 6 3 9 3s7 -1 10 -3l20 -16c3 -3 5 -8 5 -12s-2 -9 -5 -12l-115 -93l115 -93c3 -3 5 -8 5 -12s-2 -9 -5 -12l-20 -16c-3 -2 -7 -3 -10 -3s-6 1 -9 3l-119 97l-119 -97c-3 -2 -6 -3 -9 -3s-7 1 -10 3l-20 16c-3 3 -5 8 -5 12s2 9 5 12l115 93l-115 93
c-3 3 -5 8 -5 12s2 9 5 12l20 16c3 2 7 3 10 3s6 -1 9 -3z" fill="currentColor"/>
</g>
</a>
<g transform="translate(33.2230, 11.7349)">
<rect x="-0.0650" y="-4.3830" width="0.1300" height="2.4626" ry="0.0400" fill="currentColor"/>
</g>
<g transform="translate(40.8152, 6.9249)">
<polygon stroke-linejoin="round" stroke-linecap="round" stroke-width="0.0800" fill="currentColor" stroke="currentColor" points="5.7336 0.4200 5.7336 0.8200 0.0400 0.2000 0.0400 -0.2000"/>
</g>
<a style="color:inherit;" xlink:href="textedit:///data/data/com.termux/files/home/repo/Proj/rsuu.github.io/content/blog/2024-07-01_midi/drum.ly:35:36:37">
<g transform="translate(33.9483, 10.2349)">
<path transform="scale(0.0040, -0.0040)" d="M163 36l119 97c3 2 6 3 9 3s7 -1 10 -3l20 -16c3 -3 5 -8 5 -12s-2 -9 -5 -12l-115 -93l115 -93c3 -3 5 -8 5 -12s-2 -9 -5 -12l-20 -16c-3 -2 -7 -3 -10 -3s-6 1 -9 3l-119 97l-119 -97c-3 -2 -6 -3 -9 -3s-7 1 -10 3l-20 16c-3 3 -5 8 -5 12s2 9 5 12l115 93l-115 93
c-3 3 -5 8 -5 12s2 9 5 12l20 16c3 2 7 3 10 3s6 -1 9 -3z" fill="currentColor"/>
</g>
</a>
<a style="color:inherit;" xlink:href="textedit:///data/data/com.termux/files/home/repo/Proj/rsuu.github.io/content/blog/2024-07-01_midi/drum.ly:35:40:41">
<g transform="translate(33.9483, 11.2349)">
<path transform="scale(0.0040, -0.0040)" d="M218 136c55 0 108 -28 108 -89c0 -71 -55 -121 -102 -149c-35 -21 -75 -34 -116 -34c-55 0 -108 28 -108 89c0 71 55 121 102 149c35 21 75 34 116 34z" fill="currentColor"/>
</g>
</a>
<a style="color:inherit;" xlink:href="textedit:///data/data/com.termux/files/home/repo/Proj/rsuu.github.io/content/blog/2024-07-01_midi/drum.ly:57:19:20">
<g transform="translate(33.9483, 14.7349)">
<path transform="scale(0.0040, -0.0040)" d="M-23 -116c0 28 11 42 40 42c33 0 78 -13 119 -31l-132 158c-7 9 -10 17 -10 25c0 34 50 66 87 99c25 22 37 52 37 83c0 24 -8 49 -25 69l-35 42c-3 3 -4 7 -4 10c0 9 9 15 17 15c4 0 8 -1 11 -5l151 -180c7 -9 10 -17 10 -25c0 -34 -50 -66 -87 -99
c-25 -22 -37 -52 -37 -83c0 -24 7 -49 24 -69l84 -99c3 -3 4 -7 4 -10c0 -9 -8 -16 -16 -16c-4 0 -9 2 -12 6c-18 21 -63 38 -97 38c-41 0 -53 -26 -53 -67c0 -35 11 -74 28 -94c7 -8 -5 -19 -12 -11c-45 54 -92 148 -92 202z" fill="currentColor"/>
</g>
</a>
<g transform="translate(35.1875, 11.7349)">
<rect x="-0.0650" y="-4.5698" width="0.1300" height="3.8837" ry="0.0400" fill="currentColor"/>
</g>
<a style="color:inherit;" xlink:href="textedit:///data/data/com.termux/files/home/repo/Proj/rsuu.github.io/content/blog/2024-07-01_midi/drum.ly:35:46:47">
<g transform="translate(36.1628, 9.2349)">
<path transform="scale(0.0040, -0.0040)" d="M194 171c100 0 194 -73 194 -171s-94 -171 -194 -171s-194 73 -194 171s94 171 194 171zM166 0l-96 84c-22 -24 -30 -73 -34 -84c0 -30 12 -60 34 -84zM194 24l95 83c-27 18 -60 28 -95 28s-69 -10 -96 -28zM194 -24l-96 -83c27 -18 61 -28 96 -28s68 10 95 28zM221 0
l97 -84c22 24 33 54 33 84s-11 60 -33 84z" fill="currentColor"/>
</g>
</a>
<g transform="translate(37.6488, 11.7349)">
<rect x="-0.0650" y="-4.8038" width="0.1300" height="2.3038" ry="0.0400" fill="currentColor"/>
</g>
<g transform="translate(31.1934, 7.5449)">
<polygon stroke-linejoin="round" stroke-linecap="round" stroke-width="0.0800" fill="currentColor" stroke="currentColor" points="6.4803 -0.8200 6.4803 -0.4200 0.0400 0.2000 0.0400 -0.2000"/>
</g>
<a style="color:inherit;" xlink:href="textedit:///data/data/com.termux/files/home/repo/Proj/rsuu.github.io/content/blog/2024-07-01_midi/drum.ly:35:51:52">
<g transform="translate(36.1628, 11.7349)">
<path stroke-width="0.0800" stroke-linejoin="round" stroke-linecap="round" stroke="currentColor" fill="currentColor" d="M1.8860 -3.0000C2.1979 -3.4037 2.7196 -3.4037 3.0315 -3.0000L3.0315 -3.0000C2.7196 -3.2837 2.1979 -3.2837 1.8860 -3.0000z"/>
</g>
</a>
<a style="color:inherit;" xlink:href="textedit:///data/data/com.termux/files/home/repo/Proj/rsuu.github.io/content/blog/2024-07-01_midi/drum.ly:36:8:9">
<g transform="translate(39.3943, 9.2349)">
<path transform="scale(0.0040, -0.0040)" d="M194 171c100 0 194 -73 194 -171s-94 -171 -194 -171s-194 73 -194 171s94 171 194 171zM166 0l-96 84c-22 -24 -30 -73 -34 -84c0 -30 12 -60 34 -84zM194 24l95 83c-27 18 -60 28 -95 28s-69 -10 -96 -28zM194 -24l-96 -83c27 -18 61 -28 96 -28s68 10 95 28zM221 0
l97 -84c22 24 33 54 33 84s-11 60 -33 84z" fill="currentColor"/>
</g>
</a>
<g transform="translate(23.3353, 7.9249)">
<polygon stroke-linejoin="round" stroke-linecap="round" stroke-width="0.0800" fill="currentColor" stroke="currentColor" points="5.9836 -0.2000 5.9836 0.2000 0.0400 0.2000 0.0400 -0.2000"/>
</g>
<g transform="translate(40.8802, 11.7349)">
<rect x="-0.0650" y="-4.8030" width="0.1300" height="2.3030" ry="0.0400" fill="currentColor"/>
</g>
<a style="color:inherit;" xlink:href="textedit:///data/data/com.termux/files/home/repo/Proj/rsuu.github.io/content/blog/2024-07-01_midi/drum.ly:36:14:15">
<g transform="translate(41.3555, 10.2349)">
<path transform="scale(0.0040, -0.0040)" d="M163 36l119 97c3 2 6 3 9 3s7 -1 10 -3l20 -16c3 -3 5 -8 5 -12s-2 -9 -5 -12l-115 -93l115 -93c3 -3 5 -8 5 -12s-2 -9 -5 -12l-20 -16c-3 -2 -7 -3 -10 -3s-6 1 -9 3l-119 97l-119 -97c-3 -2 -6 -3 -9 -3s-7 1 -10 3l-20 16c-3 3 -5 8 -5 12s2 9 5 12l115 93l-115 93
c-3 3 -5 8 -5 12s2 9 5 12l20 16c3 2 7 3 10 3s6 -1 9 -3z" fill="currentColor"/>
</g>
</a>
<g transform="translate(42.5948, 11.7349)">
<rect x="-0.0650" y="-4.6189" width="0.1300" height="2.6985" ry="0.0400" fill="currentColor"/>
</g>
<a style="color:inherit;" xlink:href="textedit:///data/data/com.termux/files/home/repo/Proj/rsuu.github.io/content/blog/2024-07-01_midi/drum.ly:36:20:21">
<g transform="translate(43.3201, 10.2349)">
<path transform="scale(0.0040, -0.0040)" d="M163 36l119 97c3 2 6 3 9 3s7 -1 10 -3l20 -16c3 -3 5 -8 5 -12s-2 -9 -5 -12l-115 -93l115 -93c3 -3 5 -8 5 -12s-2 -9 -5 -12l-20 -16c-3 -2 -7 -3 -10 -3s-6 1 -9 3l-119 97l-119 -97c-3 -2 -6 -3 -9 -3s-7 1 -10 3l-20 16c-3 3 -5 8 -5 12s2 9 5 12l115 93l-115 93
c-3 3 -5 8 -5 12s2 9 5 12l20 16c3 2 7 3 10 3s6 -1 9 -3z" fill="currentColor"/>
</g>
</a>
<a style="color:inherit;" xlink:href="textedit:///data/data/com.termux/files/home/repo/Proj/rsuu.github.io/content/blog/2024-07-01_midi/drum.ly:36:24:25">
<g transform="translate(43.3201, 11.2349)">
<path transform="scale(0.0040, -0.0040)" d="M218 136c55 0 108 -28 108 -89c0 -71 -55 -121 -102 -149c-35 -21 -75 -34 -116 -34c-55 0 -108 28 -108 89c0 71 55 121 102 149c35 21 75 34 116 34z" fill="currentColor"/>
</g>
</a>
<g transform="translate(44.5593, 11.7349)">
<rect x="-0.0650" y="-4.4079" width="0.1300" height="3.7218" ry="0.0400" fill="currentColor"/>
</g>
<a style="color:inherit;" xlink:href="textedit:///data/data/com.termux/files/home/repo/Proj/rsuu.github.io/content/blog/2024-07-01_midi/drum.ly:36:30:31">
<g transform="translate(45.2846, 10.2349)">
<path transform="scale(0.0040, -0.0040)" d="M163 36l119 97c3 2 6 3 9 3s7 -1 10 -3l20 -16c3 -3 5 -8 5 -12s-2 -9 -5 -12l-115 -93l115 -93c3 -3 5 -8 5 -12s-2 -9 -5 -12l-20 -16c-3 -2 -7 -3 -10 -3s-6 1 -9 3l-119 97l-119 -97c-3 -2 -6 -3 -9 -3s-7 1 -10 3l-20 16c-3 3 -5 8 -5 12s2 9 5 12l115 93l-115 93
c-3 3 -5 8 -5 12s2 9 5 12l20 16c3 2 7 3 10 3s6 -1 9 -3z" fill="currentColor"/>
</g>
</a>
<g transform="translate(46.5238, 11.7349)">
<rect x="-0.0650" y="-4.1970" width="0.1300" height="2.2766" ry="0.0400" fill="currentColor"/>
</g>
<a style="color:inherit;" xlink:href="textedit:///data/data/com.termux/files/home/repo/Proj/rsuu.github.io/content/blog/2024-07-01_midi/drum.ly:36:34:35">
<g transform="translate(47.2491, 10.2349)">
<path transform="scale(0.0040, -0.0040)" d="M163 36l119 97c3 2 6 3 9 3s7 -1 10 -3l20 -16c3 -3 5 -8 5 -12s-2 -9 -5 -12l-115 -93l115 -93c3 -3 5 -8 5 -12s-2 -9 -5 -12l-20 -16c-3 -2 -7 -3 -10 -3s-6 1 -9 3l-119 97l-119 -97c-3 -2 -6 -3 -9 -3s-7 1 -10 3l-20 16c-3 3 -5 8 -5 12s2 9 5 12l115 93l-115 93
c-3 3 -5 8 -5 12s2 9 5 12l20 16c3 2 7 3 10 3s6 -1 9 -3z" fill="currentColor"/>
</g>
</a>
<g transform="translate(48.4883, 11.7349)">
<rect x="-0.0650" y="-3.8100" width="0.1300" height="1.8896" ry="0.0400" fill="currentColor"/>
</g>
<a style="color:inherit;" xlink:href="textedit:///data/data/com.termux/files/home/repo/Proj/rsuu.github.io/content/blog/2024-07-01_midi/drum.ly:36:36:37">
<g transform="translate(49.2137, 10.2349)">
<path transform="scale(0.0040, -0.0040)" d="M163 36l119 97c3 2 6 3 9 3s7 -1 10 -3l20 -16c3 -3 5 -8 5 -12s-2 -9 -5 -12l-115 -93l115 -93c3 -3 5 -8 5 -12s-2 -9 -5 -12l-20 -16c-3 -2 -7 -3 -10 -3s-6 1 -9 3l-119 97l-119 -97c-3 -2 -6 -3 -9 -3s-7 1 -10 3l-20 16c-3 3 -5 8 -5 12s2 9 5 12l115 93l-115 93
c-3 3 -5 8 -5 12s2 9 5 12l20 16c3 2 7 3 10 3s6 -1 9 -3z" fill="currentColor"/>
</g>
</a>
<g transform="translate(50.4529, 11.7349)">
<rect x="-0.0650" y="-3.8100" width="0.1300" height="1.8896" ry="0.0400" fill="currentColor"/>
</g>
<a style="color:inherit;" xlink:href="textedit:///data/data/com.termux/files/home/repo/Proj/rsuu.github.io/content/blog/2024-07-01_midi/drum.ly:36:39:40">
<g transform="translate(51.1782, 10.2349)">
<path transform="scale(0.0040, -0.0040)" d="M163 36l119 97c3 2 6 3 9 3s7 -1 10 -3l20 -16c3 -3 5 -8 5 -12s-2 -9 -5 -12l-115 -93l115 -93c3 -3 5 -8 5 -12s-2 -9 -5 -12l-20 -16c-3 -2 -7 -3 -10 -3s-6 1 -9 3l-119 97l-119 -97c-3 -2 -6 -3 -9 -3s-7 1 -10 3l-20 16c-3 3 -5 8 -5 12s2 9 5 12l115 93l-115 93
c-3 3 -5 8 -5 12s2 9 5 12l20 16c3 2 7 3 10 3s6 -1 9 -3z" fill="currentColor"/>
</g>
</a>
<a style="color:inherit;" xlink:href="textedit:///data/data/com.termux/files/home/repo/Proj/rsuu.github.io/content/blog/2024-07-01_midi/drum.ly:36:43:44">
<g transform="translate(51.1782, 11.2349)">
<path transform="scale(0.0040, -0.0040)" d="M218 136c55 0 108 -28 108 -89c0 -71 -55 -121 -102 -149c-35 -21 -75 -34 -116 -34c-55 0 -108 28 -108 89c0 71 55 121 102 149c35 21 75 34 116 34z" fill="currentColor"/>
</g>
</a>
<g transform="translate(52.4174, 11.7349)">
<rect x="-0.0650" y="-3.8100" width="0.1300" height="3.1239" ry="0.0400" fill="currentColor"/>
</g>
<a style="color:inherit;" xlink:href="textedit:///data/data/com.termux/files/home/repo/Proj/rsuu.github.io/content/blog/2024-07-01_midi/drum.ly:36:49:50">
<g transform="translate(53.1427, 10.2349)">
<path transform="scale(0.0040, -0.0040)" d="M163 36l119 97c3 2 6 3 9 3s7 -1 10 -3l20 -16c3 -3 5 -8 5 -12s-2 -9 -5 -12l-115 -93l115 -93c3 -3 5 -8 5 -12s-2 -9 -5 -12l-20 -16c-3 -2 -7 -3 -10 -3s-6 1 -9 3l-119 97l-119 -97c-3 -2 -6 -3 -9 -3s-7 1 -10 3l-20 16c-3 3 -5 8 -5 12s2 9 5 12l115 93l-115 93
c-3 3 -5 8 -5 12s2 9 5 12l20 16c3 2 7 3 10 3s6 -1 9 -3z" fill="currentColor"/>
</g>
</a>
<g transform="translate(54.3819, 11.7349)">
<rect x="-0.0650" y="-3.8100" width="0.1300" height="1.8896" ry="0.0400" fill="currentColor"/>
</g>
<a style="color:inherit;" xlink:href="textedit:///data/data/com.termux/files/home/repo/Proj/rsuu.github.io/content/blog/2024-07-01_midi/drum.ly:38:8:9">
<g transform="translate(56.1331, 11.2349)">
<path transform="scale(0.0040, -0.0040)" d="M218 136c55 0 108 -28 108 -89c0 -71 -55 -121 -102 -149c-35 -21 -75 -34 -116 -34c-55 0 -108 28 -108 89c0 71 55 121 102 149c35 21 75 34 116 34z" fill="currentColor"/>
</g>
</a>
<g transform="translate(57.3723, 11.7349)">
<rect x="-0.0650" y="-3.5000" width="0.1300" height="2.8139" ry="0.0400" fill="currentColor"/>
</g>
<a style="color:inherit;" xlink:href="textedit:///data/data/com.termux/files/home/repo/Proj/rsuu.github.io/content/blog/2024-07-01_midi/drum.ly:38:12:13">
<g transform="translate(58.0976, 11.2349)">
<path transform="scale(0.0040, -0.0040)" d="M218 136c55 0 108 -28 108 -89c0 -71 -55 -121 -102 -149c-35 -21 -75 -34 -116 -34c-55 0 -108 28 -108 89c0 71 55 121 102 149c35 21 75 34 116 34z" fill="currentColor"/>
</g>
</a>
<g transform="translate(59.3368, 11.7349)">
<rect x="-0.0650" y="-3.5000" width="0.1300" height="2.8139" ry="0.0400" fill="currentColor"/>
</g>
<a style="color:inherit;" xlink:href="textedit:///data/data/com.termux/files/home/repo/Proj/rsuu.github.io/content/blog/2024-07-01_midi/drum.ly:38:15:16">
<g transform="translate(59.8320, 11.2349)">
<path transform="scale(0.0040, -0.0040)" d="M218 136c55 0 108 -28 108 -89c0 -71 -55 -121 -102 -149c-35 -21 -75 -34 -116 -34c-55 0 -108 28 -108 89c0 71 55 121 102 149c35 21 75 34 116 34z" fill="currentColor"/>
</g>
</a>
<g transform="translate(61.0712, 11.7349)">
<rect x="-0.0650" y="-3.5000" width="0.1300" height="2.8139" ry="0.0400" fill="currentColor"/>
</g>
<a style="color:inherit;" xlink:href="textedit:///data/data/com.termux/files/home/repo/Proj/rsuu.github.io/content/blog/2024-07-01_midi/drum.ly:38:18:19">
<g transform="translate(61.5663, 11.2349)">
<path transform="scale(0.0040, -0.0040)" d="M218 136c55 0 108 -28 108 -89c0 -71 -55 -121 -102 -149c-35 -21 -75 -34 -116 -34c-55 0 -108 28 -108 89c0 71 55 121 102 149c35 21 75 34 116 34z" fill="currentColor"/>
</g>
</a>
<g transform="translate(62.8056, 11.7349)">
<rect x="-0.0650" y="-3.5000" width="0.1300" height="2.8139" ry="0.0400" fill="currentColor"/>
</g>
<g transform="translate(77.3078, 7.9249)">
<polygon stroke-linejoin="round" stroke-linecap="round" stroke-width="0.0800" fill="currentColor" stroke="currentColor" points="5.9836 -0.2000 5.9836 0.2000 0.0400 0.2000 0.0400 -0.2000"/>
</g>
<a style="color:inherit;" xlink:href="textedit:///data/data/com.termux/files/home/repo/Proj/rsuu.github.io/content/blog/2024-07-01_midi/drum.ly:38:21:22">
<g transform="translate(63.3007, 11.2349)">
<path transform="scale(0.0040, -0.0040)" d="M218 136c55 0 108 -28 108 -89c0 -71 -55 -121 -102 -149c-35 -21 -75 -34 -116 -34c-55 0 -108 28 -108 89c0 71 55 121 102 149c35 21 75 34 116 34z" fill="currentColor"/>
</g>
</a>
<g transform="translate(64.5399, 11.7349)">
<rect x="-0.0650" y="-3.5000" width="0.1300" height="2.8139" ry="0.0400" fill="currentColor"/>
</g>
<a style="color:inherit;" xlink:href="textedit:///data/data/com.termux/files/home/repo/Proj/rsuu.github.io/content/blog/2024-07-01_midi/drum.ly:38:24:25">
<g transform="translate(65.0351, 11.2349)">
<path transform="scale(0.0040, -0.0040)" d="M218 136c55 0 108 -28 108 -89c0 -71 -55 -121 -102 -149c-35 -21 -75 -34 -116 -34c-55 0 -108 28 -108 89c0 71 55 121 102 149c35 21 75 34 116 34z" fill="currentColor"/>
</g>
</a>
<g transform="translate(66.2743, 11.7349)">
<rect x="-0.0650" y="-3.5000" width="0.1300" height="2.8139" ry="0.0400" fill="currentColor"/>
</g>
<g transform="translate(113.1259, 11.7349)">
<rect x="-0.0650" y="-3.5000" width="0.1300" height="2.8139" ry="0.0400" fill="currentColor"/>
</g>
<a style="color:inherit;" xlink:href="textedit:///data/data/com.termux/files/home/repo/Proj/rsuu.github.io/content/blog/2024-07-01_midi/drum.ly:39:8:9">
<g transform="translate(67.2496, 10.2349)">
<path transform="scale(0.0040, -0.0040)" d="M163 36l119 97c3 2 6 3 9 3s7 -1 10 -3l20 -16c3 -3 5 -8 5 -12s-2 -9 -5 -12l-115 -93l115 -93c3 -3 5 -8 5 -12s-2 -9 -5 -12l-20 -16c-3 -2 -7 -3 -10 -3s-6 1 -9 3l-119 97l-119 -97c-3 -2 -6 -3 -9 -3s-7 1 -10 3l-20 16c-3 3 -5 8 -5 12s2 9 5 12l115 93l-115 93
c-3 3 -5 8 -5 12s2 9 5 12l20 16c3 2 7 3 10 3s6 -1 9 -3z" fill="currentColor"/>
</g>
</a>
<g transform="translate(68.4888, 11.7349)">
<rect x="-0.0650" y="-3.8100" width="0.1300" height="1.8896" ry="0.0400" fill="currentColor"/>
</g>
<a style="color:inherit;" xlink:href="textedit:///data/data/com.termux/files/home/repo/Proj/rsuu.github.io/content/blog/2024-07-01_midi/drum.ly:43:41:42">
<g transform="translate(111.8867, 11.2349)">
<path transform="scale(0.0040, -0.0040)" d="M218 136c55 0 108 -28 108 -89c0 -71 -55 -121 -102 -149c-35 -21 -75 -34 -116 -34c-55 0 -108 28 -108 89c0 71 55 121 102 149c35 21 75 34 116 34z" fill="currentColor"/>
</g>
</a>
<a style="color:inherit;" xlink:href="textedit:///data/data/com.termux/files/home/repo/Proj/rsuu.github.io/content/blog/2024-07-01_midi/drum.ly:39:12:13">
<g transform="translate(69.2141, 10.2349)">
<path transform="scale(0.0040, -0.0040)" d="M163 36l119 97c3 2 6 3 9 3s7 -1 10 -3l20 -16c3 -3 5 -8 5 -12s-2 -9 -5 -12l-115 -93l115 -93c3 -3 5 -8 5 -12s-2 -9 -5 -12l-20 -16c-3 -2 -7 -3 -10 -3s-6 1 -9 3l-119 97l-119 -97c-3 -2 -6 -3 -9 -3s-7 1 -10 3l-20 16c-3 3 -5 8 -5 12s2 9 5 12l115 93l-115 93
c-3 3 -5 8 -5 12s2 9 5 12l20 16c3 2 7 3 10 3s6 -1 9 -3z" fill="currentColor"/>
</g>
</a>
<g transform="translate(70.4533, 11.7349)">
<rect x="-0.0650" y="-3.8100" width="0.1300" height="1.8896" ry="0.0400" fill="currentColor"/>
</g>
<a style="color:inherit;" xlink:href="textedit:///data/data/com.termux/files/home/repo/Proj/rsuu.github.io/content/blog/2024-07-01_midi/drum.ly:43:43:44">
<g transform="translate(111.8867, 5.5836)">
<text font-family="serif" font-size="2.2000" text-anchor="start" fill="currentColor">
<tspan>R</tspan>
</text>
</g>
</a>
<a style="color:inherit;" xlink:href="textedit:///data/data/com.termux/files/home/repo/Proj/rsuu.github.io/content/blog/2024-07-01_midi/drum.ly:39:18:19">
<g transform="translate(71.1787, 10.2349)">
<path transform="scale(0.0040, -0.0040)" d="M163 36l119 97c3 2 6 3 9 3s7 -1 10 -3l20 -16c3 -3 5 -8 5 -12s-2 -9 -5 -12l-115 -93l115 -93c3 -3 5 -8 5 -12s-2 -9 -5 -12l-20 -16c-3 -2 -7 -3 -10 -3s-6 1 -9 3l-119 97l-119 -97c-3 -2 -6 -3 -9 -3s-7 1 -10 3l-20 16c-3 3 -5 8 -5 12s2 9 5 12l115 93l-115 93
c-3 3 -5 8 -5 12s2 9 5 12l20 16c3 2 7 3 10 3s6 -1 9 -3z" fill="currentColor"/>
</g>
</a>
<a style="color:inherit;" xlink:href="textedit:///data/data/com.termux/files/home/repo/Proj/rsuu.github.io/content/blog/2024-07-01_midi/drum.ly:39:22:23">
<g transform="translate(71.1787, 11.2349)">
<path transform="scale(0.0040, -0.0040)" d="M218 136c55 0 108 -28 108 -89c0 -71 -55 -121 -102 -149c-35 -21 -75 -34 -116 -34c-55 0 -108 28 -108 89c0 71 55 121 102 149c35 21 75 34 116 34z" fill="currentColor"/>
</g>
</a>
<g transform="translate(72.4179, 11.7349)">
<rect x="-0.0650" y="-3.8100" width="0.1300" height="3.1239" ry="0.0400" fill="currentColor"/>
</g>
<a style="color:inherit;" xlink:href="textedit:///data/data/com.termux/files/home/repo/Proj/rsuu.github.io/content/blog/2024-07-01_midi/drum.ly:39:28:29">
<g transform="translate(73.1432, 10.2349)">
<path transform="scale(0.0040, -0.0040)" d="M163 36l119 97c3 2 6 3 9 3s7 -1 10 -3l20 -16c3 -3 5 -8 5 -12s-2 -9 -5 -12l-115 -93l115 -93c3 -3 5 -8 5 -12s-2 -9 -5 -12l-20 -16c-3 -2 -7 -3 -10 -3s-6 1 -9 3l-119 97l-119 -97c-3 -2 -6 -3 -9 -3s-7 1 -10 3l-20 16c-3 3 -5 8 -5 12s2 9 5 12l115 93l-115 93
c-3 3 -5 8 -5 12s2 9 5 12l20 16c3 2 7 3 10 3s6 -1 9 -3z" fill="currentColor"/>
</g>
</a>
<g transform="translate(74.3824, 11.7349)">
<rect x="-0.0650" y="-3.8100" width="0.1300" height="1.8896" ry="0.0400" fill="currentColor"/>
</g>
<a style="color:inherit;" xlink:href="textedit:///data/data/com.termux/files/home/repo/Proj/rsuu.github.io/content/blog/2024-07-01_midi/drum.ly:39:32:33">
<g transform="translate(76.1336, 10.2349)">
<path transform="scale(0.0040, -0.0040)" d="M163 36l119 97c3 2 6 3 9 3s7 -1 10 -3l20 -16c3 -3 5 -8 5 -12s-2 -9 -5 -12l-115 -93l115 -93c3 -3 5 -8 5 -12s-2 -9 -5 -12l-20 -16c-3 -2 -7 -3 -10 -3s-6 1 -9 3l-119 97l-119 -97c-3 -2 -6 -3 -9 -3s-7 1 -10 3l-20 16c-3 3 -5 8 -5 12s2 9 5 12l115 93l-115 93
c-3 3 -5 8 -5 12s2 9 5 12l20 16c3 2 7 3 10 3s6 -1 9 -3z" fill="currentColor"/>
</g>
</a>
<g transform="translate(77.3728, 11.7349)">
<rect x="-0.0650" y="-3.8100" width="0.1300" height="1.8896" ry="0.0400" fill="currentColor"/>
</g>
<a style="color:inherit;" xlink:href="textedit:///data/data/com.termux/files/home/repo/Proj/rsuu.github.io/content/blog/2024-07-01_midi/drum.ly:39:36:37">
<g transform="translate(78.0981, 10.2349)">
<path transform="scale(0.0040, -0.0040)" d="M163 36l119 97c3 2 6 3 9 3s7 -1 10 -3l20 -16c3 -3 5 -8 5 -12s-2 -9 -5 -12l-115 -93l115 -93c3 -3 5 -8 5 -12s-2 -9 -5 -12l-20 -16c-3 -2 -7 -3 -10 -3s-6 1 -9 3l-119 97l-119 -97c-3 -2 -6 -3 -9 -3s-7 1 -10 3l-20 16c-3 3 -5 8 -5 12s2 9 5 12l115 93l-115 93
c-3 3 -5 8 -5 12s2 9 5 12l20 16c3 2 7 3 10 3s6 -1 9 -3z" fill="currentColor"/>
</g>
</a>
<g transform="translate(79.3373, 11.7349)">
<rect x="-0.0650" y="-3.8100" width="0.1300" height="1.8896" ry="0.0400" fill="currentColor"/>
</g>
<g transform="translate(111.3915, 11.7349)">
<rect x="-0.0650" y="-3.5000" width="0.1300" height="2.8139" ry="0.0400" fill="currentColor"/>
</g>
<a style="color:inherit;" xlink:href="textedit:///data/data/com.termux/files/home/repo/Proj/rsuu.github.io/content/blog/2024-07-01_midi/drum.ly:39:42:43">
<g transform="translate(80.0626, 10.2349)">
<path transform="scale(0.0040, -0.0040)" d="M163 36l119 97c3 2 6 3 9 3s7 -1 10 -3l20 -16c3 -3 5 -8 5 -12s-2 -9 -5 -12l-115 -93l115 -93c3 -3 5 -8 5 -12s-2 -9 -5 -12l-20 -16c-3 -2 -7 -3 -10 -3s-6 1 -9 3l-119 97l-119 -97c-3 -2 -6 -3 -9 -3s-7 1 -10 3l-20 16c-3 3 -5 8 -5 12s2 9 5 12l115 93l-115 93
c-3 3 -5 8 -5 12s2 9 5 12l20 16c3 2 7 3 10 3s6 -1 9 -3z" fill="currentColor"/>
</g>
</a>
<a style="color:inherit;" xlink:href="textedit:///data/data/com.termux/files/home/repo/Proj/rsuu.github.io/content/blog/2024-07-01_midi/drum.ly:39:46:47">
<g transform="translate(80.0626, 11.2349)">
<path transform="scale(0.0040, -0.0040)" d="M218 136c55 0 108 -28 108 -89c0 -71 -55 -121 -102 -149c-35 -21 -75 -34 -116 -34c-55 0 -108 28 -108 89c0 71 55 121 102 149c35 21 75 34 116 34z" fill="currentColor"/>
</g>
</a>
<g transform="translate(81.3018, 11.7349)">
<rect x="-0.0650" y="-3.8100" width="0.1300" height="3.1239" ry="0.0400" fill="currentColor"/>
</g>
<a style="color:inherit;" xlink:href="textedit:///data/data/com.termux/files/home/repo/Proj/rsuu.github.io/content/blog/2024-07-01_midi/drum.ly:43:34:35">
<g transform="translate(110.1523, 11.2349)">
<path transform="scale(0.0040, -0.0040)" d="M218 136c55 0 108 -28 108 -89c0 -71 -55 -121 -102 -149c-35 -21 -75 -34 -116 -34c-55 0 -108 28 -108 89c0 71 55 121 102 149c35 21 75 34 116 34z" fill="currentColor"/>
</g>
</a>
<a style="color:inherit;" xlink:href="textedit:///data/data/com.termux/files/home/repo/Proj/rsuu.github.io/content/blog/2024-07-01_midi/drum.ly:39:52:53">
<g transform="translate(82.0271, 10.2349)">
<path transform="scale(0.0040, -0.0040)" d="M163 36l119 97c3 2 6 3 9 3s7 -1 10 -3l20 -16c3 -3 5 -8 5 -12s-2 -9 -5 -12l-115 -93l115 -93c3 -3 5 -8 5 -12s-2 -9 -5 -12l-20 -16c-3 -2 -7 -3 -10 -3s-6 1 -9 3l-119 97l-119 -97c-3 -2 -6 -3 -9 -3s-7 1 -10 3l-20 16c-3 3 -5 8 -5 12s2 9 5 12l115 93l-115 93
c-3 3 -5 8 -5 12s2 9 5 12l20 16c3 2 7 3 10 3s6 -1 9 -3z" fill="currentColor"/>
</g>
</a>
<g transform="translate(83.2664, 11.7349)">
<rect x="-0.0650" y="-3.8100" width="0.1300" height="1.8896" ry="0.0400" fill="currentColor"/>
</g>
<a style="color:inherit;" xlink:href="textedit:///data/data/com.termux/files/home/repo/Proj/rsuu.github.io/content/blog/2024-07-01_midi/drum.ly:43:36:37">
<g transform="translate(110.1523, 7.5349)">
<text font-family="serif" font-size="2.2000" text-anchor="start" fill="currentColor">
<tspan>L</tspan>
</text>
</g>
</a>
<a style="color:inherit;" xlink:href="textedit:///data/data/com.termux/files/home/repo/Proj/rsuu.github.io/content/blog/2024-07-01_midi/drum.ly:41:10:11">
<g transform="translate(83.9917, 11.2349)">
<path transform="scale(0.0040, -0.0040)" d="M213 112c-50 0 -69 -43 -69 -88c0 -77 57 -136 134 -136c50 0 69 43 69 88c0 77 -57 136 -134 136zM491 0c0 -43 -34 -75 -72 -96c-53 -29 -114 -40 -174 -40s-120 11 -173 40c-38 21 -72 53 -72 96s34 75 72 96c53 29 113 40 173 40s121 -11 174 -40
c38 -21 72 -53 72 -96z" fill="currentColor"/>
</g>
</a>
<a style="color:inherit;" xlink:href="textedit:///data/data/com.termux/files/home/repo/Proj/rsuu.github.io/content/blog/2024-07-01_midi/drum.ly:41:14:15">
<g transform="translate(84.2494, 10.2349)">
<path transform="scale(0.0040, -0.0040)" d="M221 44c-2 -2 -5 -2 -8 -2s-6 0 -8 2l-106 72l-57 -39l96 -65c4 -3 6 -7 6 -12s-2 -9 -6 -12l-96 -65l57 -39l106 72c2 2 5 2 8 2s6 0 8 -2l106 -72l57 39l-96 65c-4 3 -6 7 -6 12s2 9 6 12l96 65l-57 39zM213 75l106 71c2 2 5 3 8 3s7 -1 9 -3l83 -56c4 -3 7 -8 7 -13
s-3 -9 -7 -12l-95 -65l95 -65c4 -3 7 -7 7 -12s-3 -10 -7 -13l-83 -56c-2 -2 -6 -3 -9 -3s-6 1 -8 3l-106 71l-106 -71c-2 -2 -5 -3 -8 -3s-7 1 -9 3l-83 56c-4 3 -7 8 -7 13s3 9 7 12l95 65l-95 65c-4 3 -7 7 -7 12s3 10 7 13l83 56c2 2 6 3 9 3s6 -1 8 -3z" fill="currentColor"/>
</g>
</a>
<a style="color:inherit;" xlink:href="textedit:///data/data/com.termux/files/home/repo/Proj/rsuu.github.io/content/blog/2024-07-01_midi/drum.ly:42:11:12">
<g transform="translate(90.8174, 7.6083)">
<text font-family="serif" font-size="2.2000" text-anchor="start" fill="currentColor">
<tspan>L</tspan>
</text>
</g>
</a>
<a style="color:inherit;" xlink:href="textedit:///data/data/com.termux/files/home/repo/Proj/rsuu.github.io/content/blog/2024-07-01_midi/drum.ly:42:8:9">
<g transform="translate(90.8174, 11.2349)">
<path transform="scale(0.0040, -0.0040)" d="M218 136c55 0 108 -28 108 -89c0 -71 -55 -121 -102 -149c-35 -21 -75 -34 -116 -34c-55 0 -108 28 -108 89c0 71 55 121 102 149c35 21 75 34 116 34z" fill="currentColor"/>
</g>
</a>
<g transform="translate(92.0566, 11.7349)">
<rect x="-0.0650" y="-3.6667" width="0.1300" height="2.9806" ry="0.0400" fill="currentColor"/>
</g>
<a style="color:inherit;" xlink:href="textedit:///data/data/com.termux/files/home/repo/Proj/rsuu.github.io/content/blog/2024-07-01_midi/drum.ly:42:17:18">
<g transform="translate(93.5232, 7.5863)">
<text font-family="serif" font-size="2.2000" text-anchor="start" fill="currentColor">
<tspan>R</tspan>
</text>
</g>
</a>
<a style="color:inherit;" xlink:href="textedit:///data/data/com.termux/files/home/repo/Proj/rsuu.github.io/content/blog/2024-07-01_midi/drum.ly:42:16:17">
<g transform="translate(93.5232, 11.2349)">
<path transform="scale(0.0040, -0.0040)" d="M218 136c55 0 108 -28 108 -89c0 -71 -55 -121 -102 -149c-35 -21 -75 -34 -116 -34c-55 0 -108 28 -108 89c0 71 55 121 102 149c35 21 75 34 116 34z" fill="currentColor"/>
</g>
</a>
<g transform="translate(94.7624, 11.7349)">
<rect x="-0.0650" y="-3.6667" width="0.1300" height="2.9806" ry="0.0400" fill="currentColor"/>
</g>
<g transform="translate(109.4270, 11.7349)">
<rect x="-0.0650" y="-3.5000" width="0.1300" height="2.8139" ry="0.0400" fill="currentColor"/>
</g>
<a style="color:inherit;" xlink:href="textedit:///data/data/com.termux/files/home/repo/Proj/rsuu.github.io/content/blog/2024-07-01_midi/drum.ly:42:23:24">
<g transform="translate(97.3430, 15.8488)">
<text font-family="serif" font-size="2.2000" text-anchor="start" fill="currentColor">
<tspan>L</tspan>
</text>
</g>
</a>
<a style="color:inherit;" xlink:href="textedit:///data/data/com.termux/files/home/repo/Proj/rsuu.github.io/content/blog/2024-07-01_midi/drum.ly:42:22:23">
<g transform="translate(97.3430, 11.2349)">
<path transform="scale(0.0040, -0.0040)" d="M218 136c55 0 108 -28 108 -89c0 -71 -55 -121 -102 -149c-35 -21 -75 -34 -116 -34c-55 0 -108 28 -108 89c0 71 55 121 102 149c35 21 75 34 116 34z" fill="currentColor"/>
</g>
</a>
<g transform="translate(98.5822, 11.7349)">
<rect x="-0.0650" y="-3.6667" width="0.1300" height="2.9806" ry="0.0400" fill="currentColor"/>
</g>
<a style="color:inherit;" xlink:href="textedit:///data/data/com.termux/files/home/repo/Proj/rsuu.github.io/content/blog/2024-07-01_midi/drum.ly:43:28:29">
<g transform="translate(108.1878, 11.2349)">
<path transform="scale(0.0040, -0.0040)" d="M218 136c55 0 108 -28 108 -89c0 -71 -55 -121 -102 -149c-35 -21 -75 -34 -116 -34c-55 0 -108 28 -108 89c0 71 55 121 102 149c35 21 75 34 116 34z" fill="currentColor"/>
</g>
</a>
<a style="color:inherit;" xlink:href="textedit:///data/data/com.termux/files/home/repo/Proj/rsuu.github.io/content/blog/2024-07-01_midi/drum.ly:42:29:30">
<g transform="translate(100.0487, 15.8488)">
<text font-family="serif" font-size="2.2000" text-anchor="start" fill="currentColor">
<tspan>R</tspan>
</text>
</g>
</a>
<a style="color:inherit;" xlink:href="textedit:///data/data/com.termux/files/home/repo/Proj/rsuu.github.io/content/blog/2024-07-01_midi/drum.ly:42:28:29">
<g transform="translate(100.0487, 11.2349)">
<path transform="scale(0.0040, -0.0040)" d="M218 136c55 0 108 -28 108 -89c0 -71 -55 -121 -102 -149c-35 -21 -75 -34 -116 -34c-55 0 -108 28 -108 89c0 71 55 121 102 149c35 21 75 34 116 34z" fill="currentColor"/>
</g>
</a>
<g transform="translate(101.2879, 11.7349)">
<rect x="-0.0650" y="-3.6667" width="0.1300" height="2.9806" ry="0.0400" fill="currentColor"/>
</g>
<a style="color:inherit;" xlink:href="textedit:///data/data/com.termux/files/home/repo/Proj/rsuu.github.io/content/blog/2024-07-01_midi/drum.ly:43:29:30">
<g transform="translate(108.1878, 7.5349)">
<text font-family="serif" font-size="2.2000" text-anchor="start" fill="currentColor">
<tspan>L</tspan>
</text>
</g>
</a>
<a style="color:inherit;" xlink:href="textedit:///data/data/com.termux/files/home/repo/Proj/rsuu.github.io/content/blog/2024-07-01_midi/drum.ly:43:10:11">
<g transform="translate(102.7545, 7.5349)">
<text font-family="serif" font-size="2.2000" text-anchor="start" fill="currentColor">
<tspan>L</tspan>
</text>
</g>
</a>
<a style="color:inherit;" xlink:href="textedit:///data/data/com.termux/files/home/repo/Proj/rsuu.github.io/content/blog/2024-07-01_midi/drum.ly:43:8:9">
<g transform="translate(102.7545, 11.2349)">
<path transform="scale(0.0040, -0.0040)" d="M218 136c55 0 108 -28 108 -89c0 -71 -55 -121 -102 -149c-35 -21 -75 -34 -116 -34c-55 0 -108 28 -108 89c0 71 55 121 102 149c35 21 75 34 116 34z" fill="currentColor"/>
</g>
</a>
<g transform="translate(103.9937, 11.7349)">
<rect x="-0.0650" y="-3.5000" width="0.1300" height="2.8139" ry="0.0400" fill="currentColor"/>
</g>
<a style="color:inherit;" xlink:href="textedit:///data/data/com.termux/files/home/repo/Proj/rsuu.github.io/content/blog/2024-07-01_midi/drum.ly:43:17:18">
<g transform="translate(104.4889, 5.4491)">
<text font-family="serif" font-size="2.2000" text-anchor="start" fill="currentColor">
<tspan>R</tspan>
</text>
</g>
</a>
<a style="color:inherit;" xlink:href="textedit:///data/data/com.termux/files/home/repo/Proj/rsuu.github.io/content/blog/2024-07-01_midi/drum.ly:43:15:16">
<g transform="translate(104.4889, 11.2349)">
<path transform="scale(0.0040, -0.0040)" d="M218 136c55 0 108 -28 108 -89c0 -71 -55 -121 -102 -149c-35 -21 -75 -34 -116 -34c-55 0 -108 28 -108 89c0 71 55 121 102 149c35 21 75 34 116 34z" fill="currentColor"/>
</g>
</a>
<g transform="translate(105.7281, 11.7349)">
<rect x="-0.0650" y="-3.5000" width="0.1300" height="2.8139" ry="0.0400" fill="currentColor"/>
</g>
<a style="color:inherit;" xlink:href="textedit:///data/data/com.termux/files/home/repo/Proj/rsuu.github.io/content/blog/2024-07-01_midi/drum.ly:43:23:24">
<g transform="translate(106.2232, 7.5349)">
<text font-family="serif" font-size="2.2000" text-anchor="start" fill="currentColor">
<tspan>L</tspan>
</text>
</g>
</a>
<a style="color:inherit;" xlink:href="textedit:///data/data/com.termux/files/home/repo/Proj/rsuu.github.io/content/blog/2024-07-01_midi/drum.ly:43:22:23">
<g transform="translate(106.2232, 11.2349)">
<path transform="scale(0.0040, -0.0040)" d="M218 136c55 0 108 -28 108 -89c0 -71 -55 -121 -102 -149c-35 -21 -75 -34 -116 -34c-55 0 -108 28 -108 89c0 71 55 121 102 149c35 21 75 34 116 34z" fill="currentColor"/>
</g>
</a>
<g transform="translate(107.4624, 11.7349)">
<rect x="-0.0650" y="-3.5000" width="0.1300" height="2.8139" ry="0.0400" fill="currentColor"/>
</g>
<g transform="translate(109.3620, 8.2349)">
<polygon stroke-linejoin="round" stroke-linecap="round" stroke-width="0.0800" fill="currentColor" stroke="currentColor" points="3.7889 -0.2000 3.7889 0.2000 0.0400 0.2000 0.0400 -0.2000"/>
</g>
<g transform="translate(111.3265, 9.0449)">
<polygon stroke-linejoin="round" stroke-linecap="round" stroke-width="0.0800" fill="currentColor" stroke="currentColor" points="1.8244 -0.2000 1.8244 0.2000 0.0400 0.2000 0.0400 -0.2000"/>
</g>
<g transform="translate(31.5167, 23.7349)">
<rect x="0.0000" y="-2.0000" width="0.1900" height="4.0000" ry="0.0000" fill="currentColor"/>
</g>
<g transform="translate(5.6906, 25.7349)">
<line stroke-linejoin="round" stroke-linecap="round" stroke-width="0.1000" stroke="currentColor" x1="0.0500" y1="0" x2="108.0705" y2="0"/>
</g>
<g transform="translate(5.6906, 24.7349)">
<line stroke-linejoin="round" stroke-linecap="round" stroke-width="0.1000" stroke="currentColor" x1="0.0500" y1="0" x2="108.0705" y2="0"/>
</g>
<g transform="translate(5.6906, 23.7349)">
<line stroke-linejoin="round" stroke-linecap="round" stroke-width="0.1000" stroke="currentColor" x1="0.0500" y1="0" x2="108.0705" y2="0"/>
</g>
<g transform="translate(5.6906, 22.7349)">
<line stroke-linejoin="round" stroke-linecap="round" stroke-width="0.1000" stroke="currentColor" x1="0.0500" y1="0" x2="108.0705" y2="0"/>
</g>
<g transform="translate(5.6906, 21.7349)">
<line stroke-linejoin="round" stroke-linecap="round" stroke-width="0.1000" stroke="currentColor" x1="0.0500" y1="0" x2="108.0705" y2="0"/>
</g>
<g transform="translate(107.4934, 23.7349)">
<rect x="0.0000" y="-2.0000" width="0.1900" height="4.0000" ry="0.0000" fill="currentColor"/>
</g>
<g transform="translate(95.6107, 23.7349)">
<rect x="0.0000" y="-2.0000" width="0.1900" height="4.0000" ry="0.0000" fill="currentColor"/>
</g>
<g transform="translate(83.5683, 23.7349)">
<rect x="0.0000" y="-2.0000" width="0.1900" height="4.0000" ry="0.0000" fill="currentColor"/>
</g>
<g transform="translate(71.7046, 23.7349)">
<rect x="0.0000" y="-2.0000" width="0.1900" height="4.0000" ry="0.0000" fill="currentColor"/>
</g>
<g transform="translate(60.0908, 23.7349)">
<rect x="0.0000" y="-2.0000" width="0.1900" height="4.0000" ry="0.0000" fill="currentColor"/>
</g>
<g transform="translate(48.3342, 23.7349)">
<rect x="0.0000" y="-2.0000" width="0.1900" height="4.0000" ry="0.0000" fill="currentColor"/>
</g>
<g transform="translate(4.7345, 20.6849)">
<text font-family="serif" font-size="1.7459" text-anchor="start" fill="currentColor">
<tspan>7</tspan>
</text>
</g>
<g transform="translate(38.8842, 20.9249)">
<polygon stroke-linejoin="round" stroke-linecap="round" stroke-width="0.0800" fill="currentColor" stroke="currentColor" points="3.5468 -0.2000 3.5468 0.2000 0.0400 0.2000 0.0400 -0.2000"/>
</g>
<a style="color:inherit;" xlink:href="textedit:///data/data/com.termux/files/home/repo/Proj/rsuu.github.io/content/blog/2024-07-01_midi/drum.ly:44:10:11">
<g transform="translate(11.4906, 27.8488)">
<text font-family="serif" font-size="2.2000" text-anchor="start" fill="currentColor">
<tspan>L</tspan>
</text>
</g>
</a>
<a style="color:inherit;" xlink:href="textedit:///data/data/com.termux/files/home/repo/Proj/rsuu.github.io/content/blog/2024-07-01_midi/drum.ly:44:8:9">
<g transform="translate(11.4906, 23.2349)">
<path transform="scale(0.0040, -0.0040)" d="M218 136c55 0 108 -28 108 -89c0 -71 -55 -121 -102 -149c-35 -21 -75 -34 -116 -34c-55 0 -108 28 -108 89c0 71 55 121 102 149c35 21 75 34 116 34z" fill="currentColor"/>
</g>
</a>
<g transform="translate(12.7298, 23.7349)">
<rect x="-0.0650" y="-3.5000" width="0.1300" height="2.8139" ry="0.0400" fill="currentColor"/>
</g>
<g transform="translate(33.6990, 20.9249)">
<polygon stroke-linejoin="round" stroke-linecap="round" stroke-width="0.0800" fill="currentColor" stroke="currentColor" points="3.5468 -0.2000 3.5468 0.2000 0.0400 0.2000 0.0400 -0.2000"/>
</g>
<a style="color:inherit;" xlink:href="textedit:///data/data/com.termux/files/home/repo/Proj/rsuu.github.io/content/blog/2024-07-01_midi/drum.ly:44:16:17">
<g transform="translate(13.2129, 29.7901)">
<text font-family="serif" font-size="2.2000" text-anchor="start" fill="currentColor">
<tspan>R</tspan>
</text>
</g>
</a>
<a style="color:inherit;" xlink:href="textedit:///data/data/com.termux/files/home/repo/Proj/rsuu.github.io/content/blog/2024-07-01_midi/drum.ly:44:15:16">
<g transform="translate(13.2129, 23.2349)">
<path transform="scale(0.0040, -0.0040)" d="M218 136c55 0 108 -28 108 -89c0 -71 -55 -121 -102 -149c-35 -21 -75 -34 -116 -34c-55 0 -108 28 -108 89c0 71 55 121 102 149c35 21 75 34 116 34z" fill="currentColor"/>
</g>
</a>
<g transform="translate(14.4521, 23.7349)">
<rect x="-0.0650" y="-3.5000" width="0.1300" height="2.8139" ry="0.0400" fill="currentColor"/>
</g>
<a style="color:inherit;" xlink:href="textedit:///data/data/com.termux/files/home/repo/Proj/rsuu.github.io/content/blog/2024-07-01_midi/drum.ly:46:18:19">
<g transform="translate(40.1996, 20.2222)">
<text font-family="serif" font-style="italic" font-size="1.7459" text-anchor="start" fill="currentColor">
<tspan>3</tspan>
</text>
</g>
</a>
<a style="color:inherit;" xlink:href="textedit:///data/data/com.termux/files/home/repo/Proj/rsuu.github.io/content/blog/2024-07-01_midi/drum.ly:44:23:24">
<g transform="translate(15.1534, 27.8488)">
<text font-family="serif" font-size="2.2000" text-anchor="start" fill="currentColor">
<tspan>R</tspan>
</text>
</g>
</a>
<a style="color:inherit;" xlink:href="textedit:///data/data/com.termux/files/home/repo/Proj/rsuu.github.io/content/blog/2024-07-01_midi/drum.ly:44:21:22">
<g transform="translate(15.1534, 23.2349)">
<path transform="scale(0.0040, -0.0040)" d="M218 136c55 0 108 -28 108 -89c0 -71 -55 -121 -102 -149c-35 -21 -75 -34 -116 -34c-55 0 -108 28 -108 89c0 71 55 121 102 149c35 21 75 34 116 34z" fill="currentColor"/>
</g>
</a>
<g transform="translate(16.3926, 23.7349)">
<rect x="-0.0650" y="-3.5000" width="0.1300" height="2.8139" ry="0.0400" fill="currentColor"/>
</g>
<a style="color:inherit;" xlink:href="textedit:///data/data/com.termux/files/home/repo/Proj/rsuu.github.io/content/blog/2024-07-01_midi/drum.ly:46:18:19">
</a>
<a style="color:inherit;" xlink:href="textedit:///data/data/com.termux/files/home/repo/Proj/rsuu.github.io/content/blog/2024-07-01_midi/drum.ly:44:28:29">
<g transform="translate(16.8757, 21.7349)">
<path transform="scale(0.0040, -0.0040)" d="M66 -500l101 327c-34 -12 -70 -23 -106 -23c-46 0 -87 33 -87 79c0 40 32 72 72 72c25 0 49 -15 57 -39c10 -28 5 -59 34 -59c16 0 55 51 60 68l46 151c-34 -12 -68 -22 -104 -22c-46 0 -87 33 -87 79c0 40 33 72 73 72c25 0 48 -15 56 -39c10 -28 5 -59 34 -59
c15 0 50 49 57 63c6 12 23 12 28 0l-179 -670c-8 -7 -17 -10 -27 -10s-20 3 -28 10z" fill="currentColor"/>
</g>
</a>
<g transform="translate(24.8351, 20.9249)">
<polygon stroke-linejoin="round" stroke-linecap="round" stroke-width="0.0800" fill="currentColor" stroke="currentColor" points="5.9114 -0.2000 5.9114 0.2000 0.0400 0.2000 0.0400 -0.2000"/>
</g>
<a style="color:inherit;" xlink:href="textedit:///data/data/com.termux/files/home/repo/Proj/rsuu.github.io/content/blog/2024-07-01_midi/drum.ly:44:36:37">
<g transform="translate(18.4939, 27.8488)">
<text font-family="serif" font-size="2.2000" text-anchor="start" fill="currentColor">
<tspan>R</tspan>
</text>
</g>
</a>
<a style="color:inherit;" xlink:href="textedit:///data/data/com.termux/files/home/repo/Proj/rsuu.github.io/content/blog/2024-07-01_midi/drum.ly:44:32:33">
<g transform="translate(18.4939, 23.2349)">
<path transform="scale(0.0040, -0.0040)" d="M218 136c55 0 108 -28 108 -89c0 -71 -55 -121 -102 -149c-35 -21 -75 -34 -116 -34c-55 0 -108 28 -108 89c0 71 55 121 102 149c35 21 75 34 116 34z" fill="currentColor"/>
</g>
</a>
<g transform="translate(19.7331, 23.7349)">
<rect x="-0.0650" y="-3.5000" width="0.1300" height="2.8139" ry="0.0400" fill="currentColor"/>
</g>
<a style="color:inherit;" xlink:href="textedit:///data/data/com.termux/files/home/repo/Proj/rsuu.github.io/content/blog/2024-07-01_midi/drum.ly:46:18:19">
<g transform="translate(35.0144, 20.2222)">
<text font-family="serif" font-style="italic" font-size="1.7459" text-anchor="start" fill="currentColor">
<tspan>3</tspan>
</text>
</g>
</a>
<a style="color:inherit;" xlink:href="textedit:///data/data/com.termux/files/home/repo/Proj/rsuu.github.io/content/blog/2024-07-01_midi/drum.ly:44:43:44">
<g transform="translate(20.2162, 29.9346)">
<text font-family="serif" font-size="2.2000" text-anchor="start" fill="currentColor">
<tspan>L</tspan>
</text>
</g>
</a>
<a style="color:inherit;" xlink:href="textedit:///data/data/com.termux/files/home/repo/Proj/rsuu.github.io/content/blog/2024-07-01_midi/drum.ly:44:41:42">
<g transform="translate(20.2162, 23.2349)">
<path transform="scale(0.0040, -0.0040)" d="M218 136c55 0 108 -28 108 -89c0 -71 -55 -121 -102 -149c-35 -21 -75 -34 -116 -34c-55 0 -108 28 -108 89c0 71 55 121 102 149c35 21 75 34 116 34z" fill="currentColor"/>
</g>
</a>
<g transform="translate(21.4554, 23.7349)">
<rect x="-0.0650" y="-3.5000" width="0.1300" height="2.8139" ry="0.0400" fill="currentColor"/>
</g>
<a style="color:inherit;" xlink:href="textedit:///data/data/com.termux/files/home/repo/Proj/rsuu.github.io/content/blog/2024-07-01_midi/drum.ly:46:18:19">
</a>
<a style="color:inherit;" xlink:href="textedit:///data/data/com.termux/files/home/repo/Proj/rsuu.github.io/content/blog/2024-07-01_midi/drum.ly:44:50:51">
<g transform="translate(21.9386, 27.8488)">
<text font-family="serif" font-size="2.2000" text-anchor="start" fill="currentColor">
<tspan>R</tspan>
</text>
</g>
</a>
<a style="color:inherit;" xlink:href="textedit:///data/data/com.termux/files/home/repo/Proj/rsuu.github.io/content/blog/2024-07-01_midi/drum.ly:44:48:49">
<g transform="translate(21.9386, 23.2349)">
<path transform="scale(0.0040, -0.0040)" d="M218 136c55 0 108 -28 108 -89c0 -71 -55 -121 -102 -149c-35 -21 -75 -34 -116 -34c-55 0 -108 28 -108 89c0 71 55 121 102 149c35 21 75 34 116 34z" fill="currentColor"/>
</g>
</a>
<g transform="translate(23.1778, 23.7349)">
<rect x="-0.0650" y="-3.5000" width="0.1300" height="2.8139" ry="0.0400" fill="currentColor"/>
</g>
<g transform="translate(19.6681, 20.2349)">
<polygon stroke-linejoin="round" stroke-linecap="round" stroke-width="0.0800" fill="currentColor" stroke="currentColor" points="3.5347 -0.2000 3.5347 0.2000 0.0400 0.2000 0.0400 -0.2000"/>
</g>
<g transform="translate(19.6681, 21.0449)">
<polygon stroke-linejoin="round" stroke-linecap="round" stroke-width="0.0800" fill="currentColor" stroke="currentColor" points="3.5347 -0.2000 3.5347 0.2000 0.0400 0.2000 0.0400 -0.2000"/>
</g>
<a style="color:inherit;" xlink:href="textedit:///data/data/com.termux/files/home/repo/Proj/rsuu.github.io/content/blog/2024-07-01_midi/drum.ly:46:8:9">
<g transform="translate(23.6609, 23.2349)">
<path transform="scale(0.0040, -0.0040)" d="M218 136c55 0 108 -28 108 -89c0 -71 -55 -121 -102 -149c-35 -21 -75 -34 -116 -34c-55 0 -108 28 -108 89c0 71 55 121 102 149c35 21 75 34 116 34z" fill="currentColor"/>
</g>
</a>
<g transform="translate(24.9001, 23.7349)">
<rect x="-0.0650" y="-2.8100" width="0.1300" height="2.1239" ry="0.0400" fill="currentColor"/>
</g>
<g transform="translate(12.6648, 20.2349)">
<polygon stroke-linejoin="round" stroke-linecap="round" stroke-width="0.0800" fill="currentColor" stroke="currentColor" points="3.7528 -0.2000 3.7528 0.2000 0.0400 0.2000 0.0400 -0.2000"/>
</g>
<g transform="translate(15.2926, 21.0449)">
<polygon stroke-linejoin="round" stroke-linecap="round" stroke-width="0.0800" fill="currentColor" stroke="currentColor" points="1.1250 -0.2000 1.1250 0.2000 0.0400 0.2000 0.0400 -0.2000"/>
</g>
<g transform="translate(12.6648, 21.0449)">
<polygon stroke-linejoin="round" stroke-linecap="round" stroke-width="0.0800" fill="currentColor" stroke="currentColor" points="1.1250 -0.2000 1.1250 0.2000 0.0400 0.2000 0.0400 -0.2000"/>
</g>
<a style="color:inherit;" xlink:href="textedit:///data/data/com.termux/files/home/repo/Proj/rsuu.github.io/content/blog/2024-07-01_midi/drum.ly:46:12:13">
<g transform="translate(25.6014, 23.2349)">
<path transform="scale(0.0040, -0.0040)" d="M218 136c55 0 108 -28 108 -89c0 -71 -55 -121 -102 -149c-35 -21 -75 -34 -116 -34c-55 0 -108 28 -108 89c0 71 55 121 102 149c35 21 75 34 116 34z" fill="currentColor"/>
</g>
</a>
<g transform="translate(26.8406, 23.7349)">
<rect x="-0.0650" y="-2.8100" width="0.1300" height="2.1239" ry="0.0400" fill="currentColor"/>
</g>
<a style="color:inherit;" xlink:href="textedit:///data/data/com.termux/files/home/repo/Proj/rsuu.github.io/content/blog/2024-07-01_midi/drum.ly:46:14:15">
<g transform="translate(27.5419, 23.2349)">
<path transform="scale(0.0040, -0.0040)" d="M218 136c55 0 108 -28 108 -89c0 -71 -55 -121 -102 -149c-35 -21 -75 -34 -116 -34c-55 0 -108 28 -108 89c0 71 55 121 102 149c35 21 75 34 116 34z" fill="currentColor"/>
</g>
</a>
<g transform="translate(28.7811, 23.7349)">
<rect x="-0.0650" y="-2.8100" width="0.1300" height="2.1239" ry="0.0400" fill="currentColor"/>
</g>
<a style="color:inherit;" xlink:href="textedit:///data/data/com.termux/files/home/repo/Proj/rsuu.github.io/content/blog/2024-07-01_midi/drum.ly:46:16:17">
<g transform="translate(29.4823, 23.2349)">
<path transform="scale(0.0040, -0.0040)" d="M218 136c55 0 108 -28 108 -89c0 -71 -55 -121 -102 -149c-35 -21 -75 -34 -116 -34c-55 0 -108 28 -108 89c0 71 55 121 102 149c35 21 75 34 116 34z" fill="currentColor"/>
</g>
</a>
<g transform="translate(30.7216, 23.7349)">
<rect x="-0.0650" y="-2.8100" width="0.1300" height="2.1239" ry="0.0400" fill="currentColor"/>
</g>
<g transform="translate(112.3955, 23.7349)">
<rect x="-0.0650" y="-4.3333" width="0.1300" height="2.4130" ry="0.0400" fill="currentColor"/>
</g>
<a style="color:inherit;" xlink:href="textedit:///data/data/com.termux/files/home/repo/Proj/rsuu.github.io/content/blog/2024-07-01_midi/drum.ly:46:33:34">
<g transform="translate(32.5248, 23.2349)">
<path transform="scale(0.0040, -0.0040)" d="M218 136c55 0 108 -28 108 -89c0 -71 -55 -121 -102 -149c-35 -21 -75 -34 -116 -34c-55 0 -108 28 -108 89c0 71 55 121 102 149c35 21 75 34 116 34z" fill="currentColor"/>
</g>
</a>
<g transform="translate(33.7640, 23.7349)">
<rect x="-0.0650" y="-2.8100" width="0.1300" height="2.1239" ry="0.0400" fill="currentColor"/>
</g>
<a style="color:inherit;" xlink:href="textedit:///data/data/com.termux/files/home/repo/Proj/rsuu.github.io/content/blog/2024-07-01_midi/drum.ly:53:16:17">
<g transform="translate(111.1563, 22.2349)">
<path transform="scale(0.0040, -0.0040)" d="M163 36l119 97c3 2 6 3 9 3s7 -1 10 -3l20 -16c3 -3 5 -8 5 -12s-2 -9 -5 -12l-115 -93l115 -93c3 -3 5 -8 5 -12s-2 -9 -5 -12l-20 -16c-3 -2 -7 -3 -10 -3s-6 1 -9 3l-119 97l-119 -97c-3 -2 -6 -3 -9 -3s-7 1 -10 3l-20 16c-3 3 -5 8 -5 12s2 9 5 12l115 93l-115 93
c-3 3 -5 8 -5 12s2 9 5 12l20 16c3 2 7 3 10 3s6 -1 9 -3z" fill="currentColor"/>
</g>
</a>
<a style="color:inherit;" xlink:href="textedit:///data/data/com.termux/files/home/repo/Proj/rsuu.github.io/content/blog/2024-07-01_midi/drum.ly:46:35:36">
<g transform="translate(34.2532, 23.2349)">
<path transform="scale(0.0040, -0.0040)" d="M218 136c55 0 108 -28 108 -89c0 -71 -55 -121 -102 -149c-35 -21 -75 -34 -116 -34c-55 0 -108 28 -108 89c0 71 55 121 102 149c35 21 75 34 116 34z" fill="currentColor"/>
</g>
</a>
<g transform="translate(35.4924, 23.7349)">
<rect x="-0.0650" y="-2.8100" width="0.1300" height="2.1239" ry="0.0400" fill="currentColor"/>
</g>
<a style="color:inherit;" xlink:href="textedit:///data/data/com.termux/files/home/repo/Proj/rsuu.github.io/content/blog/2024-07-01_midi/drum.ly:46:37:38">
<g transform="translate(35.9816, 23.2349)">
<path transform="scale(0.0040, -0.0040)" d="M218 136c55 0 108 -28 108 -89c0 -71 -55 -121 -102 -149c-35 -21 -75 -34 -116 -34c-55 0 -108 28 -108 89c0 71 55 121 102 149c35 21 75 34 116 34z" fill="currentColor"/>
</g>
</a>
<g transform="translate(37.2208, 23.7349)">
<rect x="-0.0650" y="-2.8100" width="0.1300" height="2.1239" ry="0.0400" fill="currentColor"/>
</g>
<a style="color:inherit;" xlink:href="textedit:///data/data/com.termux/files/home/repo/Proj/rsuu.github.io/content/blog/2024-07-01_midi/drum.ly:46:39:40">
<g transform="translate(37.7100, 23.2349)">
<path transform="scale(0.0040, -0.0040)" d="M218 136c55 0 108 -28 108 -89c0 -71 -55 -121 -102 -149c-35 -21 -75 -34 -116 -34c-55 0 -108 28 -108 89c0 71 55 121 102 149c35 21 75 34 116 34z" fill="currentColor"/>
</g>
</a>
<g transform="translate(38.9492, 23.7349)">
<rect x="-0.0650" y="-2.8100" width="0.1300" height="2.1239" ry="0.0400" fill="currentColor"/>
</g>
<a style="color:inherit;" xlink:href="textedit:///data/data/com.termux/files/home/repo/Proj/rsuu.github.io/content/blog/2024-07-01_midi/drum.ly:46:41:42">
<g transform="translate(39.4384, 23.2349)">
<path transform="scale(0.0040, -0.0040)" d="M218 136c55 0 108 -28 108 -89c0 -71 -55 -121 -102 -149c-35 -21 -75 -34 -116 -34c-55 0 -108 28 -108 89c0 71 55 121 102 149c35 21 75 34 116 34z" fill="currentColor"/>
</g>
</a>
<g transform="translate(40.6776, 23.7349)">
<rect x="-0.0650" y="-2.8100" width="0.1300" height="2.1239" ry="0.0400" fill="currentColor"/>
</g>
<a style="color:inherit;" xlink:href="textedit:///data/data/com.termux/files/home/repo/Proj/rsuu.github.io/content/blog/2024-07-01_midi/drum.ly:46:43:44">
<g transform="translate(41.1668, 23.2349)">
<path transform="scale(0.0040, -0.0040)" d="M218 136c55 0 108 -28 108 -89c0 -71 -55 -121 -102 -149c-35 -21 -75 -34 -116 -34c-55 0 -108 28 -108 89c0 71 55 121 102 149c35 21 75 34 116 34z" fill="currentColor"/>
</g>
</a>
<g transform="translate(42.4060, 23.7349)">
<rect x="-0.0650" y="-2.8100" width="0.1300" height="2.1239" ry="0.0400" fill="currentColor"/>
</g>
<a style="color:inherit;" xlink:href="textedit:///data/data/com.termux/files/home/repo/Proj/rsuu.github.io/content/blog/2024-07-01_midi/drum.ly:47:8:9">
<g transform="translate(42.8952, 23.7349)">
<path transform="scale(0.0040, -0.0040)" d="M218 136c55 0 108 -28 108 -89c0 -71 -55 -121 -102 -149c-35 -21 -75 -34 -116 -34c-55 0 -108 28 -108 89c0 71 55 121 102 149c35 21 75 34 116 34z" fill="currentColor"/>
</g>
</a>
<g transform="translate(44.1344, 23.7349)">
<rect x="-0.0650" y="-3.3333" width="0.1300" height="3.1472" ry="0.0400" fill="currentColor"/>
</g>
<a style="color:inherit;" xlink:href="textedit:///data/data/com.termux/files/home/repo/Proj/rsuu.github.io/content/blog/2024-07-01_midi/drum.ly:47:14:15">
<g transform="translate(45.5499, 23.7349)">
<path transform="scale(0.0040, -0.0040)" d="M218 136c55 0 108 -28 108 -89c0 -71 -55 -121 -102 -149c-35 -21 -75 -34 -116 -34c-55 0 -108 28 -108 89c0 71 55 121 102 149c35 21 75 34 116 34z" fill="currentColor"/>
</g>
</a>
<g transform="translate(46.7891, 23.7349)">
<rect x="-0.0650" y="-3.3333" width="0.1300" height="3.1472" ry="0.0400" fill="currentColor"/>
</g>
<a style="color:inherit;" xlink:href="textedit:///data/data/com.termux/files/home/repo/Proj/rsuu.github.io/content/blog/2024-07-01_midi/drum.ly:47:16:17">
<g transform="translate(49.3423, 23.7349)">
<path transform="scale(0.0040, -0.0040)" d="M218 136c55 0 108 -28 108 -89c0 -71 -55 -121 -102 -149c-35 -21 -75 -34 -116 -34c-55 0 -108 28 -108 89c0 71 55 121 102 149c35 21 75 34 116 34z" fill="currentColor"/>
</g>
</a>
<g transform="translate(50.5815, 23.7349)">
<rect x="-0.0650" y="-3.3333" width="0.1300" height="3.1472" ry="0.0400" fill="currentColor"/>
</g>
<g transform="translate(109.7408, 23.7349)">
<rect x="-0.0650" y="-4.3333" width="0.1300" height="2.4130" ry="0.0400" fill="currentColor"/>
</g>
<a style="color:inherit;" xlink:href="textedit:///data/data/com.termux/files/home/repo/Proj/rsuu.github.io/content/blog/2024-07-01_midi/drum.ly:47:18:19">
<g transform="translate(51.9971, 23.7349)">
<path transform="scale(0.0040, -0.0040)" d="M218 136c55 0 108 -28 108 -89c0 -71 -55 -121 -102 -149c-35 -21 -75 -34 -116 -34c-55 0 -108 28 -108 89c0 71 55 121 102 149c35 21 75 34 116 34z" fill="currentColor"/>
</g>
</a>
<g transform="translate(53.2363, 23.7349)">
<rect x="-0.0650" y="-3.3333" width="0.1300" height="3.1472" ry="0.0400" fill="currentColor"/>
</g>
<a style="color:inherit;" xlink:href="textedit:///data/data/com.termux/files/home/repo/Proj/rsuu.github.io/content/blog/2024-07-01_midi/drum.ly:48:8:9">
<g transform="translate(54.6518, 23.7349)">
<path transform="scale(0.0040, -0.0040)" d="M218 136c55 0 108 -28 108 -89c0 -71 -55 -121 -102 -149c-35 -21 -75 -34 -116 -34c-55 0 -108 28 -108 89c0 71 55 121 102 149c35 21 75 34 116 34z" fill="currentColor"/>
</g>
</a>
<g transform="translate(5.8206, 23.7349)">
<path transform="scale(0.0040, -0.0040)" d="M490 -250h-92c-6 0 -10 4 -10 10v480c0 6 4 10 10 10h92c6 0 10 -4 10 -10v-480c0 -6 -4 -10 -10 -10zM270 -250h-93c-6 0 -10 4 -10 10v480c0 6 4 10 10 10h93c6 0 10 -4 10 -10v-480c0 -6 -4 -10 -10 -10z" fill="currentColor"/>
</g>
<a style="color:inherit;" xlink:href="textedit:///data/data/com.termux/files/home/repo/Proj/rsuu.github.io/content/blog/2024-07-01_midi/drum.ly:48:14:15">
<g transform="translate(57.3065, 23.7349)">
<path transform="scale(0.0040, -0.0040)" d="M218 136c55 0 108 -28 108 -89c0 -71 -55 -121 -102 -149c-35 -21 -75 -34 -116 -34c-55 0 -108 28 -108 89c0 71 55 121 102 149c35 21 75 34 116 34z" fill="currentColor"/>
</g>
</a>
<g transform="translate(58.5457, 23.7349)">
<rect x="-0.0650" y="-3.3333" width="0.1300" height="3.1472" ry="0.0400" fill="currentColor"/>
</g>
<a style="color:inherit;" xlink:href="textedit:///data/data/com.termux/files/home/repo/Proj/rsuu.github.io/content/blog/2024-07-01_midi/drum.ly:53:14:15">
<g transform="translate(108.5016, 22.2349)">
<path transform="scale(0.0040, -0.0040)" d="M163 36l119 97c3 2 6 3 9 3s7 -1 10 -3l20 -16c3 -3 5 -8 5 -12s-2 -9 -5 -12l-115 -93l115 -93c3 -3 5 -8 5 -12s-2 -9 -5 -12l-20 -16c-3 -2 -7 -3 -10 -3s-6 1 -9 3l-119 97l-119 -97c-3 -2 -6 -3 -9 -3s-7 1 -10 3l-20 16c-3 3 -5 8 -5 12s2 9 5 12l115 93l-115 93
c-3 3 -5 8 -5 12s2 9 5 12l20 16c3 2 7 3 10 3s6 -1 9 -3z" fill="currentColor"/>
</g>
</a>
<a style="color:inherit;" xlink:href="textedit:///data/data/com.termux/files/home/repo/Proj/rsuu.github.io/content/blog/2024-07-01_midi/drum.ly:48:16:17">
<g transform="translate(61.0989, 23.7349)">
<path transform="scale(0.0040, -0.0040)" d="M218 136c55 0 108 -28 108 -89c0 -71 -55 -121 -102 -149c-35 -21 -75 -34 -116 -34c-55 0 -108 28 -108 89c0 71 55 121 102 149c35 21 75 34 116 34z" fill="currentColor"/>
</g>
</a>
<g transform="translate(62.3382, 23.7349)">
<rect x="-0.0650" y="-3.3333" width="0.1300" height="3.1472" ry="0.0400" fill="currentColor"/>
</g>
<a style="color:inherit;" xlink:href="textedit:///data/data/com.termux/files/home/repo/Proj/rsuu.github.io/content/blog/2024-07-01_midi/drum.ly:48:18:19">
<g transform="translate(63.7537, 23.7349)">
<path transform="scale(0.0040, -0.0040)" d="M218 136c55 0 108 -28 108 -89c0 -71 -55 -121 -102 -149c-35 -21 -75 -34 -116 -34c-55 0 -108 28 -108 89c0 71 55 121 102 149c35 21 75 34 116 34z" fill="currentColor"/>
</g>
</a>
<g transform="translate(64.9929, 23.7349)">
<rect x="-0.0650" y="-3.3333" width="0.1300" height="3.1472" ry="0.0400" fill="currentColor"/>
</g>
<a style="color:inherit;" xlink:href="textedit:///data/data/com.termux/files/home/repo/Proj/rsuu.github.io/content/blog/2024-07-01_midi/drum.ly:50:8:9">
<g transform="translate(66.1584, 25.2349)">
<path transform="scale(0.0040, -0.0040)" d="M218 136c55 0 108 -28 108 -89c0 -71 -55 -121 -102 -149c-35 -21 -75 -34 -116 -34c-55 0 -108 28 -108 89c0 71 55 121 102 149c35 21 75 34 116 34z" fill="currentColor"/>
</g>
</a>
<g transform="translate(67.3976, 23.7349)">
<rect x="-0.0650" y="-2.0000" width="0.1300" height="3.3139" ry="0.0400" fill="currentColor"/>
</g>
<a style="color:inherit;" xlink:href="textedit:///data/data/com.termux/files/home/repo/Proj/rsuu.github.io/content/blog/2024-07-01_midi/drum.ly:50:12:13">
<g transform="translate(68.8131, 25.2349)">
<path transform="scale(0.0040, -0.0040)" d="M218 136c55 0 108 -28 108 -89c0 -71 -55 -121 -102 -149c-35 -21 -75 -34 -116 -34c-55 0 -108 28 -108 89c0 71 55 121 102 149c35 21 75 34 116 34z" fill="currentColor"/>
</g>
</a>
<g transform="translate(70.0524, 23.7349)">
<rect x="-0.0650" y="-2.0000" width="0.1300" height="3.3139" ry="0.0400" fill="currentColor"/>
</g>
<g transform="translate(106.0722, 23.7349)">
<rect x="-0.0650" y="-4.3333" width="0.1300" height="2.4130" ry="0.0400" fill="currentColor"/>
</g>
<a style="color:inherit;" xlink:href="textedit:///data/data/com.termux/files/home/repo/Proj/rsuu.github.io/content/blog/2024-07-01_midi/drum.ly:53:12:13">
<g transform="translate(104.8330, 22.2349)">
<path transform="scale(0.0040, -0.0040)" d="M163 36l119 97c3 2 6 3 9 3s7 -1 10 -3l20 -16c3 -3 5 -8 5 -12s-2 -9 -5 -12l-115 -93l115 -93c3 -3 5 -8 5 -12s-2 -9 -5 -12l-20 -16c-3 -2 -7 -3 -10 -3s-6 1 -9 3l-119 97l-119 -97c-3 -2 -6 -3 -9 -3s-7 1 -10 3l-20 16c-3 3 -5 8 -5 12s2 9 5 12l115 93l-115 93
c-3 3 -5 8 -5 12s2 9 5 12l20 16c3 2 7 3 10 3s6 -1 9 -3z" fill="currentColor"/>
</g>
</a>
<a style="color:inherit;" xlink:href="textedit:///data/data/com.termux/files/home/repo/Proj/rsuu.github.io/content/blog/2024-07-01_midi/drum.ly:50:14:15">
<g transform="translate(72.7127, 25.2349)">
<path transform="scale(0.0040, -0.0040)" d="M218 136c55 0 108 -28 108 -89c0 -71 -55 -121 -102 -149c-35 -21 -75 -34 -116 -34c-55 0 -108 28 -108 89c0 71 55 121 102 149c35 21 75 34 116 34z" fill="currentColor"/>
</g>
</a>
<g transform="translate(73.9519, 23.7349)">
<rect x="-0.0650" y="-2.0000" width="0.1300" height="3.3139" ry="0.0400" fill="currentColor"/>
</g>
<a style="color:inherit;" xlink:href="textedit:///data/data/com.termux/files/home/repo/Proj/rsuu.github.io/content/blog/2024-07-01_midi/drum.ly:50:16:17">
<g transform="translate(75.3674, 25.2349)">
<path transform="scale(0.0040, -0.0040)" d="M218 136c55 0 108 -28 108 -89c0 -71 -55 -121 -102 -149c-35 -21 -75 -34 -116 -34c-55 0 -108 28 -108 89c0 71 55 121 102 149c35 21 75 34 116 34z" fill="currentColor"/>
</g>
</a>
<g transform="translate(76.6067, 23.7349)">
<rect x="-0.0650" y="-2.0000" width="0.1300" height="3.3139" ry="0.0400" fill="currentColor"/>
</g>
<a style="color:inherit;" xlink:href="textedit:///data/data/com.termux/files/home/repo/Proj/rsuu.github.io/content/blog/2024-07-01_midi/drum.ly:51:8:9">
<g transform="translate(78.0222, 25.2349)">
<path transform="scale(0.0040, -0.0040)" d="M218 136c55 0 108 -28 108 -89c0 -71 -55 -121 -102 -149c-35 -21 -75 -34 -116 -34c-55 0 -108 28 -108 89c0 71 55 121 102 149c35 21 75 34 116 34z" fill="currentColor"/>
</g>
</a>
<g transform="translate(79.2614, 23.7349)">
<rect x="-0.0650" y="-2.0000" width="0.1300" height="3.3139" ry="0.0400" fill="currentColor"/>
</g>
<a style="color:inherit;" xlink:href="textedit:///data/data/com.termux/files/home/repo/Proj/rsuu.github.io/content/blog/2024-07-01_midi/drum.ly:51:13:14">
<g transform="translate(80.6769, 25.2349)">
<path transform="scale(0.0040, -0.0040)" d="M218 136c55 0 108 -28 108 -89c0 -71 -55 -121 -102 -149c-35 -21 -75 -34 -116 -34c-55 0 -108 28 -108 89c0 71 55 121 102 149c35 21 75 34 116 34z" fill="currentColor"/>
</g>
</a>
<g transform="translate(81.9161, 23.7349)">
<rect x="-0.0650" y="-2.0000" width="0.1300" height="3.3139" ry="0.0400" fill="currentColor"/>
</g>
<g transform="translate(103.4175, 23.7349)">
<rect x="-0.0650" y="-4.3333" width="0.1300" height="2.4130" ry="0.0400" fill="currentColor"/>
</g>
<a style="color:inherit;" xlink:href="textedit:///data/data/com.termux/files/home/repo/Proj/rsuu.github.io/content/blog/2024-07-01_midi/drum.ly:53:8:9">
<g transform="translate(102.1783, 22.2349)">
<path transform="scale(0.0040, -0.0040)" d="M163 36l119 97c3 2 6 3 9 3s7 -1 10 -3l20 -16c3 -3 5 -8 5 -12s-2 -9 -5 -12l-115 -93l115 -93c3 -3 5 -8 5 -12s-2 -9 -5 -12l-20 -16c-3 -2 -7 -3 -10 -3s-6 1 -9 3l-119 97l-119 -97c-3 -2 -6 -3 -9 -3s-7 1 -10 3l-20 16c-3 3 -5 8 -5 12s2 9 5 12l115 93l-115 93
c-3 3 -5 8 -5 12s2 9 5 12l20 16c3 2 7 3 10 3s6 -1 9 -3z" fill="currentColor"/>
</g>
</a>
<a style="color:inherit;" xlink:href="textedit:///data/data/com.termux/files/home/repo/Proj/rsuu.github.io/content/blog/2024-07-01_midi/drum.ly:51:15:16">
<g transform="translate(84.5765, 25.2349)">
<path transform="scale(0.0040, -0.0040)" d="M218 136c55 0 108 -28 108 -89c0 -71 -55 -121 -102 -149c-35 -21 -75 -34 -116 -34c-55 0 -108 28 -108 89c0 71 55 121 102 149c35 21 75 34 116 34z" fill="currentColor"/>
</g>
</a>
<g transform="translate(85.8157, 23.7349)">
<rect x="-0.0650" y="-2.0000" width="0.1300" height="3.3139" ry="0.0400" fill="currentColor"/>
</g>
<a style="color:inherit;" xlink:href="textedit:///data/data/com.termux/files/home/repo/Proj/rsuu.github.io/content/blog/2024-07-01_midi/drum.ly:51:17:18">
<g transform="translate(87.2312, 25.2349)">
<path transform="scale(0.0040, -0.0040)" d="M218 136c55 0 108 -28 108 -89c0 -71 -55 -121 -102 -149c-35 -21 -75 -34 -116 -34c-55 0 -108 28 -108 89c0 71 55 121 102 149c35 21 75 34 116 34z" fill="currentColor"/>
</g>
</a>
<g transform="translate(88.4704, 23.7349)">
<rect x="-0.0650" y="-2.0000" width="0.1300" height="3.3139" ry="0.0400" fill="currentColor"/>
</g>
<a style="color:inherit;" xlink:href="textedit:///data/data/com.termux/files/home/repo/Proj/rsuu.github.io/content/blog/2024-07-01_midi/drum.ly:52:8:9">
<g transform="translate(90.1359, 24.2349)">
<path transform="scale(0.0040, -0.0040)" d="M218 136c55 0 108 -28 108 -89c0 -71 -55 -121 -102 -149c-35 -21 -75 -34 -116 -34c-55 0 -108 28 -108 89c0 71 55 121 102 149c35 21 75 34 116 34z" fill="currentColor"/>
</g>
</a>
<g transform="translate(91.3752, 23.7349)">
<rect x="-0.0650" y="-3.0000" width="0.1300" height="3.3139" ry="0.0400" fill="currentColor"/>
</g>
<a style="color:inherit;" xlink:href="textedit:///data/data/com.termux/files/home/repo/Proj/rsuu.github.io/content/blog/2024-07-01_midi/drum.ly:52:14:15">
<g transform="translate(92.7907, 24.2349)">
<path transform="scale(0.0040, -0.0040)" d="M218 136c55 0 108 -28 108 -89c0 -71 -55 -121 -102 -149c-35 -21 -75 -34 -116 -34c-55 0 -108 28 -108 89c0 71 55 121 102 149c35 21 75 34 116 34z" fill="currentColor"/>
</g>
</a>
<g transform="translate(94.0299, 23.7349)">
<rect x="-0.0650" y="-3.0000" width="0.1300" height="3.3139" ry="0.0400" fill="currentColor"/>
</g>
<g transform="translate(100.5128, 23.7349)">
<rect x="-0.0650" y="-3.0000" width="0.1300" height="3.3139" ry="0.0400" fill="currentColor"/>
</g>
<a style="color:inherit;" xlink:href="textedit:///data/data/com.termux/files/home/repo/Proj/rsuu.github.io/content/blog/2024-07-01_midi/drum.ly:52:18:19">
<g transform="translate(99.2735, 24.2349)">
<path transform="scale(0.0040, -0.0040)" d="M218 136c55 0 108 -28 108 -89c0 -71 -55 -121 -102 -149c-35 -21 -75 -34 -116 -34c-55 0 -108 28 -108 89c0 71 55 121 102 149c35 21 75 34 116 34z" fill="currentColor"/>
</g>
</a>
<a style="color:inherit;" xlink:href="textedit:///data/data/com.termux/files/home/repo/Proj/rsuu.github.io/content/blog/2024-07-01_midi/drum.ly:52:16:17">
<g transform="translate(96.6188, 24.2349)">
<path transform="scale(0.0040, -0.0040)" d="M218 136c55 0 108 -28 108 -89c0 -71 -55 -121 -102 -149c-35 -21 -75 -34 -116 -34c-55 0 -108 28 -108 89c0 71 55 121 102 149c35 21 75 34 116 34z" fill="currentColor"/>
</g>
</a>
<g transform="translate(97.8580, 23.7349)">
<rect x="-0.0650" y="-3.0000" width="0.1300" height="3.3139" ry="0.0400" fill="currentColor"/>
</g>
<g transform="translate(55.8910, 23.7349)">
<rect x="-0.0650" y="-3.3333" width="0.1300" height="3.1472" ry="0.0400" fill="currentColor"/>
</g>
<g transform="translate(35.5603, 161.9593)">
<text font-family="serif" font-size="2.2000" text-anchor="start" fill="currentColor">
<tspan>Creative Commons Attribution-ShareAlike 4.0</tspan>
</text>
</g>
<g transform="translate(30.5412, 164.9944)">
<a xlink:href="https://lilypond.org/">
<rect x="0.0000" y="-0.6006" width="58.4192" height="2.3761" fill="none" stroke="none" stroke-width="0.0"/>
</a>
</g>
<g transform="translate(30.5412, 164.9944)">
<text font-family="serif" font-size="2.2000" text-anchor="start" fill="currentColor">
<tspan>Music engraving by LilyPond 2.24.3www.lilypond.org</tspan>
</text>
</g>
</svg>
